<?xml version="1.0" standalone="no"?>
<!DOCTYPE svg PUBLIC "-//W3C//DTD SVG 20010904//EN"
 "http://www.w3.org/TR/2001/REC-SVG-20010904/DTD/svg10.dtd">
<svg version="1.0" xmlns="http://www.w3.org/2000/svg"
 width="1024.000000pt" height="1024.000000pt" viewBox="0 0 1024.000000 1024.000000"
 preserveAspectRatio="xMidYMid meet">
<metadata>
Created by potrace 1.16, written by Peter Selinger 2001-2019
</metadata>
<g transform="translate(0.000000,1024.000000) scale(0.100000,-0.100000)"
fill="#000000" stroke="none">
<path d="M0 5120 l0 -5120 4720 0 4720 0 0 80 0 80 320 0 320 0 0 -80 0 -80
80 0 80 0 0 5120 0 5120 -5120 0 -5120 0 0 -5120z m5394 4078 c15 -40 34 -89
41 -108 8 -19 26 -75 40 -125 15 -49 33 -108 40 -130 7 -22 34 -107 60 -190
25 -82 61 -199 80 -260 19 -60 39 -128 44 -150 5 -22 19 -74 30 -115 13 -46
21 -106 21 -156 0 -89 9 -174 19 -174 3 0 21 26 40 58 19 31 51 77 71 102 20
25 46 61 58 81 12 19 50 62 84 94 130 120 187 171 248 220 34 28 76 64 94 80
18 17 59 53 92 81 32 28 100 87 150 130 215 186 275 236 279 232 3 -2 -8 -44
-24 -94 -35 -106 -58 -194 -77 -289 -7 -38 -18 -90 -24 -115 -5 -25 -14 -85
-20 -135 -32 -266 -65 -476 -85 -525 -7 -20 -16 -58 -20 -85 -5 -27 -17 -69
-27 -93 -13 -29 -18 -55 -14 -76 7 -35 -17 -106 -35 -106 -17 0 -57 -49 -95
-117 l-36 -65 -90 89 c-49 48 -95 93 -102 98 -6 6 -34 30 -62 55 -95 85 -119
106 -166 139 l-48 34 -626 -6 c-344 -3 -624 -4 -622 -1 3 2 45 24 94 48 49 24
109 58 134 77 25 19 56 42 70 51 14 9 40 29 58 45 l33 28 -55 85 c-81 123 -82
129 -51 247 29 108 100 336 150 483 18 52 72 215 120 363 48 147 91 267 95
267 4 0 19 -33 34 -72z m-1381 -467 c73 -70 166 -159 207 -197 240 -220 513
-491 575 -574 28 -36 75 -88 105 -117 61 -57 60 -64 -8 -101 -62 -33 -138 -98
-255 -217 -133 -135 -337 -357 -382 -417 -37 -49 -190 -226 -278 -320 -56 -61
-72 -62 -161 -17 -43 21 -84 39 -92 39 -7 0 -20 14 -29 30 -9 17 -20 30 -25
30 -18 0 -10 27 16 55 28 31 31 88 4 93 -18 3 -60 -66 -53 -86 4 -9 -2 -11
-19 -7 -17 4 -33 -3 -63 -29 -38 -33 -55 -37 -55 -14 0 6 -22 36 -48 67 -27
31 -55 66 -63 78 -9 12 -33 36 -55 53 -21 18 -91 80 -154 139 -173 163 -213
198 -339 300 -116 93 -151 127 -151 143 0 11 -8 11 160 -8 80 -10 148 -22 152
-28 4 -6 25 -9 46 -7 22 1 43 -2 47 -8 3 -6 21 -11 39 -11 18 0 36 -3 40 -7
14 -14 110 -35 153 -34 24 1 82 -6 129 -14 48 -8 118 -15 156 -15 63 0 387
-52 409 -66 5 -3 23 -3 39 1 35 8 36 17 16 102 -49 206 -55 244 -86 523 -23
206 -97 597 -147 773 -9 34 32 2 170 -132z m4011 -1066 c-3 -8 -67 -70 -142
-137 -75 -68 -159 -144 -186 -170 -52 -51 -74 -61 -56 -27 7 11 9 23 6 26 -10
10 -37 -20 -34 -38 2 -10 -12 -33 -32 -52 -35 -33 -144 -153 -235 -257 -53
-61 -228 -251 -261 -284 -30 -31 -35 -53 -16 -75 19 -22 150 -81 179 -81 18 0
102 -31 178 -65 17 -8 59 -24 95 -36 142 -48 167 -58 225 -84 33 -15 103 -40
155 -56 52 -16 118 -38 145 -49 28 -11 102 -31 165 -43 72 -15 115 -28 115
-36 0 -12 -38 -36 -105 -64 -19 -8 -91 -40 -160 -70 -69 -30 -171 -69 -228
-86 -67 -20 -124 -44 -163 -70 -33 -22 -69 -43 -81 -47 -12 -3 -42 -17 -67
-31 -48 -25 -109 -51 -301 -127 -184 -73 -199 -77 -221 -65 -12 6 -25 6 -36 1
-14 -8 -12 -12 15 -26 17 -9 41 -26 54 -39 13 -12 55 -49 93 -81 227 -191 938
-886 906 -886 -16 0 -239 58 -296 77 -27 9 -86 42 -131 73 l-81 58 -89 -31
-89 -30 -145 12 c-80 7 -203 21 -275 32 -71 10 -151 19 -176 19 -33 0 -49 5
-53 16 -3 8 -10 13 -15 10 -5 -4 -14 9 -20 27 -7 19 -25 49 -41 67 -17 18 -39
58 -51 89 -11 31 -26 62 -32 70 -6 7 -19 30 -28 50 -22 49 -43 18 259 374 29
34 58 73 65 87 10 19 20 25 47 25 24 0 35 5 35 15 0 11 -19 17 -73 24 l-73 9
0 41 c0 23 -3 246 -5 496 -3 281 -9 459 -15 466 -7 8 -6 14 1 19 6 4 18 -3 28
-15 12 -15 41 -25 105 -37 48 -8 90 -13 93 -10 3 3 3 19 -1 35 -5 24 -10 29
-31 26 -14 -1 -53 10 -87 24 -51 22 -79 45 -159 129 -142 152 -171 188 -163
213 3 11 26 56 50 99 37 66 43 84 36 108 -5 16 -8 58 -7 93 l2 65 69 23 c62
19 333 69 485 87 30 4 62 8 70 10 8 1 65 8 125 14 61 7 139 18 175 26 36 7 97
18 135 24 39 7 99 18 135 26 110 25 205 41 212 38 4 -2 5 -10 2 -18z m-2572
-431 c46 -9 105 -27 131 -40 27 -13 55 -24 63 -24 19 0 143 -123 177 -175 41
-63 74 -171 82 -269 7 -79 6 -88 -8 -83 -9 3 -32 9 -51 13 l-36 6 0 -46 c0
-29 4 -45 10 -41 6 3 10 19 10 36 0 27 1 28 23 17 57 -33 57 -33 36 -110 -27
-97 -84 -191 -161 -264 -108 -104 -219 -148 -373 -148 -109 -1 -194 21 -267
70 -21 13 -41 24 -46 24 -16 0 -102 90 -135 142 -89 139 -122 302 -93 453 20
101 75 214 138 281 57 60 194 135 283 154 33 7 65 14 70 15 24 8 70 4 147 -11z
m-1649 -554 c29 -25 40 -29 68 -24 19 4 39 11 45 16 24 18 42 -3 47 -55 3 -29
4 -277 2 -553 -2 -275 0 -517 5 -538 11 -49 78 -159 173 -285 43 -57 106 -152
139 -210 74 -130 71 -127 111 -134 17 -3 78 -24 134 -47 75 -31 121 -58 171
-100 l68 -58 25 22 c24 21 34 22 170 20 79 -1 153 -3 164 -4 11 -1 198 1 415
6 l396 7 26 -32 c18 -20 36 -31 53 -31 37 0 107 43 128 80 10 16 21 30 26 30
4 0 25 18 47 39 l41 39 43 -29 c24 -16 45 -28 46 -26 2 2 -1 28 -7 58 -11 50
-10 58 15 114 34 76 97 175 112 175 6 0 21 -25 32 -55 12 -30 39 -85 61 -122
23 -36 43 -81 47 -99 3 -18 15 -40 25 -50 28 -25 24 -39 -18 -64 -28 -16 -45
-20 -71 -15 l-35 7 56 -57 c37 -37 68 -60 89 -64 l33 -7 6 -124 c4 -69 14
-179 23 -245 9 -66 21 -165 26 -220 6 -55 15 -127 20 -160 5 -33 16 -116 25
-185 9 -69 23 -157 31 -197 18 -93 19 -90 -13 -58 -24 24 -78 72 -159 142
-134 116 -424 394 -424 407 0 5 -16 26 -35 47 -19 22 -35 43 -35 48 0 5 -10
13 -22 17 -31 10 -112 78 -246 209 -62 60 -116 111 -121 113 -4 1 -14 -28 -21
-66 -9 -52 -10 -74 -1 -90 8 -14 8 -27 2 -39 -11 -20 -81 -272 -81 -290 0 -7
-8 -32 -17 -55 -16 -41 -17 -42 -25 -18 -5 18 -6 13 -3 -15 3 -24 -3 -64 -14
-100 -11 -33 -31 -100 -46 -150 -15 -49 -42 -135 -60 -190 -33 -100 -69 -219
-99 -327 -9 -32 -21 -58 -26 -58 -14 0 -44 75 -115 285 -35 104 -74 217 -85
250 -12 33 -25 74 -30 90 -32 106 -96 291 -122 355 -16 41 -34 104 -38 140
-20 157 -49 273 -82 327 -45 75 -82 118 -95 110 -6 -4 -9 -31 -7 -64 1 -32 5
-110 9 -173 l6 -116 -41 -38 c-65 -60 -155 -133 -190 -155 -18 -10 -52 -38
-76 -61 -25 -24 -63 -55 -86 -70 -23 -16 -67 -51 -97 -78 -163 -145 -164 -146
-176 -128 -17 23 -25 20 -25 -11 -1 -23 -23 -47 -121 -133 -66 -58 -124 -107
-130 -109 -11 -3 -6 37 16 129 13 51 35 169 55 300 5 30 16 84 24 120 8 36 17
97 21 135 3 39 13 117 20 175 8 58 24 173 35 255 19 142 21 151 49 175 38 33
66 79 55 89 -5 5 -61 -2 -124 -14 -140 -27 -578 -85 -641 -85 -21 0 -29 6 -35
28 -4 15 -7 30 -6 34 1 4 -7 12 -18 18 -15 8 -28 7 -52 -6 -46 -24 -109 -65
-133 -88 -21 -20 -99 -56 -119 -56 -14 0 -110 -28 -229 -66 -70 -23 -117 -25
-117 -5 0 7 501 504 737 731 65 63 160 159 210 213 85 91 91 96 97 73 3 -14
33 -80 66 -148 33 -67 60 -128 60 -135 0 -7 7 -13 15 -13 14 0 22 42 15 75
-41 204 -100 281 -246 318 -86 22 -406 138 -425 154 -8 7 -19 13 -23 13 -4 0
-26 8 -49 19 -23 10 -80 33 -127 51 -47 18 -140 55 -207 81 -68 27 -132 49
-142 49 -11 0 -23 5 -27 11 -4 7 -22 9 -48 5 -36 -6 -45 -3 -62 15 -10 12 -34
28 -51 36 -18 7 -33 17 -33 22 0 4 17 15 38 24 50 22 387 136 436 148 22 6 51
16 65 24 14 8 62 28 106 44 44 16 116 45 159 66 44 20 90 39 103 41 13 3 50
18 82 34 32 17 63 30 69 30 28 0 180 81 205 109 35 39 66 40 110 1z m1727
-965 c201 -51 320 -97 375 -146 11 -10 30 -21 41 -26 41 -16 145 -117 225
-219 45 -57 89 -106 99 -109 9 -3 26 -15 36 -26 19 -21 18 -22 -89 -124 -107
-102 -109 -103 -167 -110 -33 -4 -63 -4 -68 -1 -12 7 -86 14 -310 27 -150 8
-247 8 -407 -2 -330 -19 -599 -1 -626 42 -5 8 -9 30 -9 50 0 41 -18 99 -30 99
-14 0 -19 -14 -21 -61 -2 -69 -7 -79 -39 -79 -60 0 -100 38 -100 93 1 48 41
143 79 182 21 22 51 61 67 88 16 26 37 50 46 53 9 3 20 14 23 25 4 10 16 24
27 30 26 14 111 79 118 90 7 10 93 48 150 64 48 14 82 20 200 34 41 5 95 18
120 30 53 24 155 23 260 -4z m-3166 -2464 c15 -16 23 -17 59 -9 48 11 207 9
252 -3 17 -4 80 -10 140 -13 166 -8 265 -22 316 -44 50 -22 59 -35 59 -87 0
-33 -2 -34 -47 -41 -27 -4 -79 -2 -118 4 -38 6 -101 14 -140 17 -38 4 -94 11
-122 17 -41 9 -63 8 -95 -2 -24 -7 -73 -12 -110 -11 -58 2 -68 0 -77 -18 -15
-26 -14 -64 1 -79 9 -9 9 -15 0 -24 -9 -9 -12 -9 -12 0 0 7 -5 12 -11 12 -5 0
-7 -4 -4 -10 3 -5 -3 -10 -14 -10 -16 0 -21 -6 -21 -25 0 -14 -4 -25 -10 -25
-5 0 -10 -8 -10 -17 1 -17 1 -17 14 -1 19 25 56 12 56 -19 0 -20 4 -24 19 -20
18 4 18 4 0 -28 l-20 -33 23 -6 c13 -3 29 -6 36 -6 14 0 16 42 2 56 -6 6 0 21
18 42 l28 32 107 0 c88 0 107 -3 107 -15 0 -8 5 -15 11 -15 5 0 8 4 5 9 -17
27 171 19 222 -10 18 -11 39 -19 46 -19 19 0 49 -37 41 -50 -3 -6 7 -23 24
-39 31 -29 40 -51 21 -51 -5 0 -10 -8 -11 -17 -1 -12 -4 -9 -8 7 -4 15 -14 24
-24 24 -9 -1 -17 4 -17 12 0 9 -11 14 -29 14 -31 0 -49 -14 -31 -25 13 -8 13
-25 -1 -25 -6 0 -13 9 -16 20 -3 11 -11 20 -18 20 -7 0 -15 6 -17 12 -3 9 -9
8 -22 -5 -10 -9 -20 -17 -24 -17 -13 0 -34 17 -33 26 1 14 -42 12 -60 -3 -9
-8 -22 -13 -29 -11 -7 2 -14 -2 -17 -8 -5 -14 38 -27 50 -15 11 11 136 -16
153 -34 9 -9 10 -16 4 -20 -21 -13 -42 -67 -31 -78 13 -13 15 -40 2 -33 -5 4
-22 1 -37 -4 l-27 -11 21 -19 c25 -24 32 -25 32 -5 0 8 7 15 15 15 8 0 15 6
15 13 0 9 2 9 9 -1 6 -11 12 -10 26 5 10 10 27 19 37 19 18 1 18 0 2 -25 -22
-35 -55 -60 -71 -54 -7 3 -13 -2 -13 -10 0 -18 -41 -30 -54 -17 -16 16 -26 12
-26 -10 0 -15 7 -20 26 -20 41 0 18 -18 -42 -31 -53 -12 -82 -29 -49 -29 9 0
13 -5 9 -11 -4 -7 -21 -9 -45 -5 -21 3 -40 2 -43 -3 -4 -5 -26 -3 -52 5 -26 7
-50 11 -55 9 -8 -5 -194 20 -233 32 -18 5 -19 6 -3 18 16 12 16 13 0 18 -10 2
-27 8 -38 12 -16 6 -18 5 -8 -5 6 -7 9 -18 7 -25 -7 -17 7 -25 81 -51 46 -16
64 -28 79 -53 l19 -32 -44 6 c-24 4 -57 13 -74 21 -16 8 -63 20 -104 26 -64 9
-80 16 -108 44 -37 38 -40 52 -17 99 16 34 32 45 70 50 12 2 61 22 110 45 87
41 89 41 122 26 18 -9 79 -21 135 -27 56 -6 110 -15 120 -20 13 -7 23 -7 33 2
7 6 25 8 39 5 14 -4 40 0 60 8 32 14 34 17 25 40 -7 20 -6 26 3 26 17 0 57 37
57 52 0 6 -9 3 -20 -7 -16 -14 -25 -16 -43 -8 -12 6 -56 9 -97 8 -41 -2 -83 2
-94 7 -19 10 -55 16 -151 23 -69 6 -141 29 -171 56 -11 11 -25 19 -31 19 -17
0 -21 70 -8 123 11 42 10 46 -3 35 -12 -10 -16 -10 -19 0 -3 8 -25 12 -64 12
-58 0 -59 0 -75 38 -9 22 -13 51 -10 72 3 19 11 74 17 123 l12 87 57 0 c43 0
61 -5 74 -19z m5154 -47 l43 -44 58 9 c39 6 73 6 99 -1 37 -9 43 -15 56 -57 9
-25 20 -93 26 -151 13 -130 9 -135 -92 -125 -87 9 -96 -6 -44 -72 20 -25 36
-50 36 -54 0 -5 11 -11 25 -15 20 -5 23 -9 15 -19 -8 -9 -8 -15 -1 -20 12 -7
91 -137 91 -148 0 -15 -113 -7 -132 10 -15 13 -23 14 -44 4 -14 -6 -32 -8 -40
-3 -20 11 -92 100 -111 136 -29 55 -95 106 -139 106 -15 0 -20 -45 -5 -54 4
-3 11 -33 15 -66 7 -64 28 -87 65 -75 15 5 21 -1 27 -27 17 -74 25 -70 -117
-66 -70 2 -130 5 -133 8 -3 3 5 39 18 80 20 64 25 106 31 280 4 113 8 216 10
230 2 14 4 63 4 108 l1 84 98 -7 97 -7 43 -44z m-3979 22 c6 -4 22 -28 35 -54
38 -74 82 -130 126 -157 31 -19 40 -32 40 -53 0 -35 26 -132 39 -145 14 -14
41 10 41 37 0 38 30 139 60 201 15 33 31 75 35 93 4 18 18 44 32 59 25 24 29
25 112 19 47 -3 99 -5 115 -6 l29 0 -6 -97 c-4 -54 -13 -186 -21 -293 -8 -107
-18 -233 -21 -280 -10 -135 -8 -130 -65 -130 l-50 0 0 128 c0 70 -4 132 -8
139 -4 7 -26 -47 -51 -127 l-44 -138 -299 1 -298 2 0 146 c0 80 -3 149 -7 152
-3 4 -11 0 -17 -9 -20 -27 -17 23 4 64 14 28 20 70 25 170 13 255 17 275 45
283 30 8 133 4 149 -5z m3051 -42 c63 -37 140 -103 140 -121 0 -6 -45 -12
-109 -15 -60 -3 -114 -9 -120 -12 -6 -4 -11 -37 -11 -80 0 -96 -17 -322 -32
-417 l-11 -76 -91 -6 c-99 -7 -316 -1 -325 9 -3 3 -6 137 -6 297 l0 292 -127
3 -128 3 0 52 c0 29 -3 62 -6 74 -4 15 -1 22 13 26 10 3 183 5 385 6 l367 1
61 -36z m-1755 11 c151 -8 161 -11 173 -43 21 -57 52 -169 61 -222 5 -30 16
-80 25 -110 9 -30 16 -67 16 -81 0 -32 -50 -89 -77 -89 -10 0 -24 -5 -29 -10
-13 -13 -139 -29 -225 -30 -133 0 -149 -13 -158 -125 l-6 -70 -45 -8 c-43 -8
-256 -5 -264 4 -3 3 0 113 20 656 l5 132 77 3 c104 4 282 1 427 -7z m2174 -25
c40 -4 77 -12 82 -17 5 -5 2 -69 -6 -148 -8 -77 -20 -214 -25 -305 -16 -259
-13 -250 -99 -250 -31 0 -93 -5 -139 -12 -45 -6 -85 -9 -87 -6 -6 5 23 402 30
428 3 8 11 76 20 150 13 114 21 171 24 176 2 3 134 -8 200 -16z m1302 -17 c6
-16 18 -37 28 -48 10 -11 25 -50 33 -87 13 -58 13 -69 0 -81 -10 -11 -17 -60
-25 -172 -12 -181 -15 -176 79 -195 38 -8 69 -8 110 -1 32 6 75 11 96 11 34 0
42 -5 71 -47 17 -26 47 -64 66 -85 37 -42 40 -39 -55 -62 -110 -28 -270 -30
-469 -7 -99 12 -197 27 -218 35 -61 21 -100 105 -62 136 8 7 15 28 15 47 0 27
-5 36 -21 40 l-22 6 23 17 c13 10 20 22 16 28 -8 13 -36 5 -53 -15 -13 -17
-33 -9 -33 13 0 8 5 12 10 9 6 -4 18 -4 27 -1 14 6 14 9 -2 26 -18 20 -18 22
10 88 25 59 29 81 32 192 5 154 7 167 36 173 12 2 84 5 160 6 l137 1 11 -27z
m-5116 -565 c-8 -68 -50 -152 -95 -189 -19 -16 -44 -37 -55 -47 -48 -41 -156
-71 -284 -78 -68 -4 -96 -1 -136 13 -53 20 -69 50 -25 46 14 -1 79 -3 145 -4
126 -3 175 8 175 37 0 13 6 15 28 11 15 -3 34 -2 42 4 10 6 11 9 3 9 -26 0
-12 29 15 32 17 2 27 9 27 19 0 19 63 79 82 79 7 0 27 27 45 60 18 33 35 60
36 60 2 0 1 -24 -3 -52z m528 -440 c11 -27 17 -57 13 -70 -7 -29 -58 -52 -150
-68 -81 -15 -85 -12 -111 76 -24 84 -22 90 38 101 28 6 83 10 121 9 l70 -1 19
-47z m1165 25 c-26 -31 -57 -91 -72 -140 -24 -80 -86 -254 -116 -328 -15 -38
-40 -106 -54 -150 -15 -44 -38 -104 -52 -133 -13 -29 -24 -58 -24 -65 0 -6 -9
-27 -20 -44 l-20 -33 -216 0 -216 0 7 33 c18 79 4 142 -62 295 -8 18 -41 104
-72 190 -32 86 -70 187 -84 223 -14 36 -22 71 -18 76 9 15 105 23 174 16 l60
-6 28 -66 c39 -89 90 -190 114 -226 11 -16 36 -61 56 -100 43 -83 62 -92 79
-38 22 69 84 206 155 347 l71 139 40 4 c21 2 86 9 144 17 58 7 107 11 109 9 2
-1 -2 -11 -11 -20z m2513 -13 c38 -13 100 -23 163 -26 55 -3 115 -10 132 -15
16 -5 66 -11 110 -14 106 -6 207 -21 232 -34 12 -6 35 -11 52 -11 49 0 223
-50 243 -69 27 -26 10 -79 -57 -176 -55 -80 -60 -109 -16 -98 15 4 20 0 20
-16 0 -11 -4 -21 -10 -21 -5 0 -10 -6 -10 -14 0 -29 -23 -28 -52 3 -26 28 -33
30 -71 26 -91 -13 -106 -16 -109 -26 -2 -6 -25 -13 -51 -16 -55 -6 -62 -26
-16 -42 17 -6 57 -37 88 -68 32 -32 86 -86 122 -119 81 -78 172 -175 167 -179
-1 -1 -78 -6 -169 -10 l-167 -7 -36 55 c-20 30 -47 66 -60 79 -12 14 -26 32
-30 39 -13 26 -31 55 -43 69 -7 8 -23 29 -37 45 -13 17 -26 28 -29 25 -2 -3
-1 -36 4 -74 5 -42 5 -75 -1 -86 -6 -10 -10 -34 -10 -53 0 -35 0 -35 -42 -31
-24 2 -82 6 -130 10 -98 7 -94 1 -97 114 -1 31 -10 71 -21 92 -10 20 -23 69
-29 110 -15 99 -19 125 -35 183 -8 28 -17 74 -21 102 -4 29 -18 92 -31 140
-23 84 -30 133 -19 133 3 0 33 -9 66 -20z m-1897 -19 c3 -5 29 -98 57 -207 27
-110 66 -237 85 -284 19 -46 34 -90 34 -97 0 -8 11 -35 25 -61 13 -26 28 -74
34 -107 5 -33 12 -67 15 -75 5 -13 -7 -15 -76 -13 -46 1 -266 2 -490 2 l-408
1 0 21 c0 42 71 257 152 459 17 41 37 91 44 111 7 20 31 73 54 117 22 44 40
85 40 90 0 30 36 37 219 43 102 3 191 6 198 7 6 1 14 -2 17 -7z m462 -84 c33
-44 75 -98 94 -120 35 -38 36 -38 115 -40 111 -2 159 6 164 28 1 10 11 27 22
38 10 11 23 34 29 51 19 54 62 78 146 84 49 3 74 1 74 -6 0 -6 -4 -13 -9 -17
-5 -3 -15 -30 -22 -60 -7 -31 -18 -60 -26 -66 -7 -6 -13 -20 -13 -30 0 -29
-107 -286 -128 -307 -12 -12 -22 -41 -27 -78 -7 -61 -28 -104 -40 -85 -3 6 -1
11 4 11 6 0 11 11 11 25 0 31 -13 32 -27 2 -8 -17 -7 -30 4 -51 13 -24 12 -33
-2 -76 -31 -94 -64 -89 -109 17 -16 37 -37 77 -47 87 -18 19 -18 19 -27 -5 -5
-13 -13 -54 -16 -91 -7 -58 -10 -68 -27 -68 -10 0 -19 6 -19 13 0 8 -29 57
-64 110 -71 107 -156 271 -236 453 -28 65 -67 149 -86 187 -19 37 -34 71 -34
75 0 4 54 6 119 4 l119 -3 58 -82z m-4216 64 c19 -5 71 -12 115 -15 107 -7
125 -11 187 -34 82 -32 116 -51 123 -72 3 -10 12 -21 20 -24 21 -8 19 -65 -7
-222 l-21 -133 -66 -11 c-129 -23 -358 -45 -392 -38 -8 2 -12 -3 -10 -12 2 -8
6 -69 9 -136 5 -140 11 -134 -109 -134 -50 0 -68 4 -73 15 -3 8 -10 15 -16 15
-5 0 -10 -7 -10 -15 0 -20 -39 -19 -62 2 -17 15 -18 15 -18 0 0 -17 -46 -35
-58 -22 -4 4 -8 48 -8 98 -3 200 -23 473 -38 517 -8 25 -16 82 -18 128 l-3 82
155 1 c85 0 164 4 175 9 27 12 82 12 125 1z m944 -13 c331 1 453 -22 551 -105
l45 -38 -6 -55 c-7 -61 -16 -81 -50 -123 -13 -16 -24 -37 -24 -46 0 -10 -10
-31 -22 -46 l-22 -28 -135 7 c-75 4 -151 9 -170 13 -45 8 -38 -12 20 -54 111
-81 153 -119 221 -201 91 -109 118 -140 143 -165 20 -19 20 -19 -45 -12 -36 4
-121 10 -190 14 l-125 6 -14 32 c-8 18 -23 35 -33 39 -11 3 -35 31 -55 62 -20
32 -45 67 -57 80 -19 21 -21 22 -27 5 -4 -10 -8 -35 -8 -55 -1 -21 -5 -38 -10
-38 -6 0 -13 -20 -17 -45 l-6 -45 -62 -2 c-33 -1 -90 -2 -126 -3 -46 0 -64 -4
-63 -12 2 -7 -5 -13 -16 -13 -16 0 -20 10 -25 63 -7 75 -22 271 -35 462 -6 77
-13 177 -17 222 l-7 82 54 3 c30 2 63 2 73 0 11 -3 128 -4 260 -4z m4268 -23
c26 -3 50 -10 53 -15 3 -5 37 -6 75 -3 55 5 70 3 74 -8 2 -8 20 -70 39 -139
20 -69 47 -156 60 -195 14 -38 41 -131 62 -205 20 -74 46 -154 57 -178 11 -24
19 -44 17 -46 -2 -1 -55 0 -117 2 -109 4 -114 5 -123 29 -5 13 -9 40 -9 59 l0
34 -87 1 c-49 1 -101 3 -118 4 -43 3 -52 -9 -60 -75 l-7 -60 -164 0 c-90 0
-164 4 -164 9 0 4 14 26 31 47 54 68 85 146 144 369 15 55 36 132 48 170 12
39 20 82 19 98 -3 21 1 27 17 27 14 0 23 11 32 38 17 52 18 54 47 48 15 -2 48
-8 74 -11z m1709 -7 c75 -14 88 -37 98 -183 l6 -90 155 -12 c85 -7 211 -16
279 -20 l125 -8 9 -35 c6 -23 5 -41 -2 -52 -13 -21 -15 -85 -2 -92 15 -10 25
25 30 109 6 74 8 80 32 89 14 5 73 5 133 1 94 -6 107 -9 101 -24 -4 -9 -10
-58 -12 -108 l-6 -93 -96 0 c-181 0 -494 22 -525 37 -15 8 -25 10 -22 4 5 -8
-24 -11 -93 -11 l-100 0 6 -35 c3 -19 0 -55 -7 -81 -8 -26 -9 -49 -4 -53 7 -7
400 -21 597 -22 15 0 17 -11 17 -76 l0 -76 -317 7 c-175 3 -403 9 -507 12
l-189 7 6 91 c4 50 13 145 21 211 9 66 15 176 16 245 0 69 5 160 12 204 l12
78 85 -7 c47 -3 111 -11 142 -17z m777 8 c3 -3 6 -19 7 -36 1 -23 -2 -30 -16
-30 -19 0 -32 -13 -22 -23 3 -4 7 -25 9 -48 l4 -41 -202 9 c-112 4 -233 8
-270 7 l-68 -1 0 73 c0 40 -3 80 -7 90 -6 16 10 17 276 11 156 -3 286 -8 289
-11z m-5642 -299 c1 -98 37 -425 52 -467 4 -12 6 -12 9 3 5 17 23 24 23 8 0
-22 -37 -35 -103 -37 -40 -2 -91 -8 -115 -15 -36 -10 -116 -8 -127 3 -2 2 -11
104 -19 228 -9 124 -19 255 -22 291 l-6 66 78 12 c44 7 86 14 94 15 8 2 42 3
75 4 l60 1 1 -112z"/>
<path d="M3450 6508 c-24 -26 -25 -37 -5 -44 8 -4 15 -14 15 -23 0 -11 -10
-17 -37 -18 -31 -2 -60 -20 -48 -31 14 -15 109 -7 100 8 -5 7 23 70 30 70 3 0
2 -13 -1 -30 -7 -31 -6 -32 46 -34 16 -1 26 -8 28 -21 7 -35 20 -38 45 -11 37
40 42 73 15 97 -13 10 -34 22 -48 25 -14 3 -32 8 -40 11 -8 4 -18 5 -22 5 -5
-1 -8 3 -8 8 0 19 -49 10 -70 -12z"/>
<path d="M3304 6417 c3 -10 6 -21 6 -23 0 -2 8 -4 18 -5 12 0 10 -3 -7 -10
-14 -5 -31 -7 -39 -4 -21 8 -92 -70 -92 -100 0 -31 32 -48 72 -40 18 4 40 2
54 -6 20 -10 27 -10 44 6 20 19 26 60 11 83 -6 10 -10 10 -21 -3 -7 -8 -20
-15 -29 -15 -13 1 -12 3 4 12 35 19 43 36 35 74 -10 44 -18 53 -31 34 -8 -13
-10 -13 -20 0 -9 13 -10 12 -5 -3z"/>
<path d="M4723 2981 c-45 -41 -53 -62 -53 -130 l0 -61 48 -2 c77 -3 176 3 186
12 15 14 34 105 29 133 -3 15 -11 27 -18 27 -7 0 -15 9 -18 20 -4 17 -14 20
-60 20 -31 0 -61 2 -69 5 -7 2 -27 -8 -45 -24z"/>
<path d="M7732 2063 c6 -16 13 -84 17 -153 l6 -125 40 -3 c80 -7 170 38 195
97 10 26 10 36 -3 64 -28 57 -74 86 -177 108 -31 7 -50 16 -50 25 0 8 -9 14
-20 14 -17 0 -18 -3 -8 -27z"/>
<path d="M8106 2006 c3 -9 10 -16 14 -16 4 0 11 -8 14 -17 4 -10 4 -14 0 -10
-12 12 -35 -14 -24 -28 7 -8 4 -17 -10 -30 -11 -10 -20 -28 -20 -39 0 -25 -13
-48 -26 -44 -5 1 -27 -14 -48 -35 -21 -20 -46 -38 -55 -38 -89 -7 -91 -8 -91
-19 0 -16 64 -12 100 6 18 9 46 31 62 48 18 19 26 23 20 11 -6 -11 -25 -33
-43 -50 -28 -24 -45 -30 -104 -36 -38 -3 -61 -7 -50 -8 11 0 26 -10 33 -22 7
-12 16 -18 19 -15 3 3 0 13 -8 22 -12 15 -11 16 11 9 36 -12 83 -7 96 10 6 8
32 18 57 21 39 6 49 12 71 46 14 22 26 46 26 53 0 8 4 16 9 19 14 9 20 60 9
74 -6 7 -12 32 -12 55 -1 38 -4 42 -28 45 -22 3 -27 0 -22 -12z"/>
<path d="M1683 1992 c-14 -24 -37 -242 -26 -252 10 -11 216 -38 268 -35 22 1
55 5 73 9 l32 8 0 69 c0 65 -2 69 -27 83 -16 7 -53 16 -83 20 -30 3 -80 10
-110 15 -30 5 -57 8 -60 7 -3 0 -6 15 -8 34 -6 57 -36 78 -59 42z"/>
<path d="M2722 1987 c-12 -6 -24 -17 -27 -26 -8 -27 -10 -149 -3 -157 4 -4 40
8 78 25 94 44 144 50 173 24 41 -37 65 -45 102 -33 48 16 61 54 23 66 -13 3
-48 23 -78 44 -93 63 -202 86 -268 57z"/>
</g>
</svg>
