<?xml version="1.0" encoding="utf-8"?>

<!DOCTYPE svg PUBLIC "-//W3C//DTD SVG 1.1//EN" "http://www.w3.org/Graphics/SVG/1.1/DTD/svg11.dtd">
<svg version="1.1" id="Layer_1" xmlns="http://www.w3.org/2000/svg" xmlns:xlink="http://www.w3.org/1999/xlink" x="0px" y="0px"
	 viewBox="61 117.44 1798 1685.1199" enable-background="new 61 117.44 1798 1685.1199" xml:space="preserve">
<g>
	<path d="M1821.104,759.1567c-13.3398-2.12-26.78-3.56-40.22-4.74c-22.96-1.62-45.98-1.54-68.97-1.4
		c-7.5801,0.72-14.79,3.37-22.1899,4.95c-7.8201,1.92-15.9302,0.8-23.8901,1.1c-18.6799-0.01-37.3499,0.0099-56.03-0.01
		c-4.01-0.11-7.53,2.09-10.8799,4c-15.1101,9.71-29.5601,20.4-44.55,30.29c-4.28,2.59-7.8401,6.28-12.4299,8.36
		c-6.4399,3.18-12.79,6.51-19.1799,9.79c-15.8301,7.97-31.3201,17.25-48.7202,21.45c-9.3398,2.43-19.0898,1.66-28.5898,0.87
		c-16.8501-1.58-33.72-2.75-50.5801-4.16c-7.6899-0.57-15.3799-1.46-23.1001-1.23c-41.95-0.05-83.8899,0.09-125.8298-0.07
		c-7.9299-1.86-15.55-4.91-23.1501-7.78c-8.8599-3.6-18.25-6.74-25.45-13.28c-4.95-4.3-8.55-10.26-9.6899-16.71
		c1.8301-6.73,4.6299-13.18,6.9099-19.77c-0.3499-2.67-1.3499-5.75-4-6.91c-11.72-6.8-24.79-10.8-36.75-17.13
		c42.02-25.22,80.3501-56.69,112.6301-93.5999c14.79-17.1801,28.98-34.8601,44.29-51.5901c24.5898-27.62,50.77-53.78,77.5898-79.24
		c-27.3-0.6499-54.8298,3.46-80.29,13.48c-13.75,5.47-28.01,9.6801-42.6199,12.1001c-24.6201,4.45-49.71,2.5999-74.5801,2.98
		c-6.72,0.25-14.1799-0.04-19.5898-4.5701c-5.4502-4.49-7.1001-11.9099-7.2102-18.6499c-0.1799-5.03,0.6902-10.6801,4.6602-14.1801
		c4.1399-4.03,10.8999-2.7101,14.95-6.9c4.9399-4.9099,4.96-12.4199,4.79-18.9099c-2.52-3.27-5.1401-6.9202-5.95-10.9801
		c5.25-51.67,10.73-103.33,16.0498-155c0.5-2.95,2.1401-5.5399,3.0601-8.36c1.8201-4.62,2.6799-9.97,6.4399-13.53
		c2.4402-2.4099,6.0601-1.8999,9.1802-1.83c4.21,5.5,9.03,10.51,13.73,15.6c14.03,14.65,28.7,28.6799,43.8398,42.1899
		c12.5901,11.25,25.8601,21.79,40.01,31.04c9.25,5.92,19.6301,10.8401,30.8101,11.14c-0.53-12.49-2.8899-24.8099-4.8999-37.12
		c-6.6702-36.63-13.9399-73.1699-22.6702-109.37c-5.0198-19.5399-9.6199-39.2899-16.95-58.12c-2.6799-5.7-5.01-12.52-10.75-15.8
		c-37.71-4.6299-75.48-10.0699-112.0999-20.48c-6.76-1.5599-13.27-4.7999-20.3701-4.03
		c-63.98,40.76-121.5601,90.9701-173.4299,146.1801c-18.1201,18.3199-32.8801,39.5499-47.23,60.86
		c-15.4301,23.5901-32.23,46.97-54.75,64.3401c-2.02-3.3201-4.05-6.6301-5.97-10c-1.9001,1.5399-3.7201,3.2899-6.1201,4.02
		c-2.55,6.6199-8.1699,11.5-10.48,18.22c-7.6499,5.5-15.87,10.4299-24.95,13.1499c-3.54,0.9401-6.5701,3.4301-8.1901,6.71
		c-2.97,5.8101-3.36,12.4801-3.5199,18.8901c-4.3901-0.1301-9.1101,0.1299-13.1101-1.9601c-2.79-2.33-2.7-6.48-3.0699-9.7999
		c-0.75-22.9,3.1-46.16,12.65-67.0701c6.09-13.9199,15.75-25.79,23.28-38.8999c10.3398-17.2001,19.3699-35.1801,27.1899-53.6602
		c-10.76,0.04-21.53-0.1799-32.29,0.3301c-22.24,1.36-44.08,7.11-64.58,15.72c-14.78,6.14-29.15,13.51-41.88,23.26
		c-15.3101,11.6101-28.25,26.4301-37.23,43.4399c-0.79,1.53-1.77,3.0801-1.58,4.8901c0.18,16.35-0.48,32.72,0.75,49.04
		c1.59,20.7799,6.94,41.2999,16.07,60.0598c5.21,10.6301,9.95,21.53,13.1399,32.9501c4.0701,13.4501,5.2301,27.5699,4.7101,41.5599
		c-12.53-12.2699-23.49-25.99-34.35-39.72c-10.01-12.6099-26.1-20.0699-42.21-19.1499c-3.21,1.3799-4.9,4.72-6.4,7.6699
		c-2.1,4.8501-4.71,9.55-5.87,14.75c-5.41,21.45-9.65,43.17-13.67,64.91c-2.1,9.5-1.43,19.2799-2.43,28.9
		c-1.85,22.6599-1.02,45.4099,0.73,68.04c0.9,7.48-0.97,15.0499-4.38,21.7c-2.1,4.1399-5.99,7.8-10.84,8.05
		c-5.26,0.49-10.05-2.9102-12.8-7.1602c-4.85-7.22-6.6299-15.8899-8.8799-24.1499c-8.51-31.8201-15.33-64.0901-25.07-95.5701
		c-4.46-14.98-10.62-30.74-23.57-40.4199c0.94-16.15,1.54-32.3601,0.51-48.52c-0.79-9.27-2.7-18.95-8.51-26.48
		c-5.98-7.42-14.97-11.64-23.94-14.24c-15.31-4.16-29.08-12.3101-42.64-20.3c-2.72-0.8899-6.68-1.3799-6.85-5.04
		c-0.28-20.6299-0.05-41.2899-0.11-61.9199c0.07-1.1799-0.17-2.28-0.71-3.29c-11.52,0.8701-24,1.73-33.45,9.23
		c-6.04,4.5-8.93,11.65-11.79,18.3501c-4.83,11.6299-8.36,23.75-11.23,36c-2.04-1.3901-4.1-2.75-6.15-4.1101
		c-0.03-13.5599,0.1-27.1099-0.06-40.6699c5.22-1.88,10.91-3.78,14.42-8.3501c3.04-4.4199,3.76-9.95,3.97-15.1899
		c0.11-13.3201,0.27-26.6699-1.24-39.9299c-0.65-6.17-0.83-12.98-4.92-18.05c-4.75-5.77-12.99-7.04-20.01-6
		c-9.4,1.63-16.25,9.14-21.33,16.7c-6.67,9.55-11.29,20.3801-14.79,31.4501c-4.1,12.71-7.4,25.66-10.02,38.75
		c-1.84,9.61-3.48,19.36-3.1,29.1901c0.54,21.5898,3.92,43.0199,8.61,64.0698c4.8701,21.6401,12.88,42.78,25.36,61.2001
		c3.4,5.73,7.51,11.1,12.64,15.38c8.0601,7.0901,18.03,11.3301,27.33,16.48c18.98,10.03,38.91,19.4299,54.05,35.0701
		c8.07,8.74,11.61,21.1499,10.46,32.8699c-2.17,9.9501-9.38,17.74-16.19,24.9001c-32.53,31.8398-67.02,61.8999-96.11,97.0499
		c-7.83,10.14-15.13,21.72-15.88,34.87c-0.73,7.09,2.56,14.4,8.56,18.32c12.64,7.77,26.85,12.45,39.88,19.47
		c4.46,2.64,9.33,5.02,12.63,9.16c3.3,4.06,3.49,10.95-0.81,14.41c-6.57,5.76-14.81,9.12-21.69,14.46
		c-37.51,31.31-66.49,72.2-85.67,117.01c-19.47,45.4901-26.69,96.2501-19.84,145.3001c2.2,16.7799,6.4,33.22,11.29,49.3999
		c3.73,12.92,6.54,26.12,8.26,39.4701c3.36,23.86,2.56,48.0499,1.12,72.0299c-1.7,25.9-5.56,51.66-11.74,76.88
		c-4.98,19.92-10.87,39.76-19.99,58.2201c-16.82,34.6799-42.06,64.8099-71.22,89.7999c-14.51,9.91-29.3,19.42-43.68,29.53
		c-16.14,11.13-32.07,22.77-45.95,36.6799c-3.96,4.4601-9.07,9.5601-7.99,16.1001c0.3,3.75,1.94,8.1699,5.88,9.38
		c19.05,0.87,38.08,2.1599,57.04,4.21c7.15,0.92,14.55,1.7,21.02,5.16c17.27,8.8099,30.6,23.87,48.54,31.5399
		c0.0099,4.13,0.06,8.26-0.06,12.4c-6.0601,5.4301-12.29,10.6801-18.36,16.11c-0.23,5.88,1.4,11.9401,5.38,16.41
		c1.85,2.54,4.73,4.0699,6.81,6.36c-4.35,7.97-10.69,14.64-15.23,22.5c-0.78,1.72-2.83,2.8-3.09,4.73
		c2.76,5.3401,8.95,6.9601,14.33,8.4401c12.37,3.0399,25.04,4.59,37.57,6.8099c11.61,1.6901,23.26,3.3,34.97,4.15
		c37.98,0.0601,75.97,0.02,113.96,0.02c14.42-1.88,28.15-8.74,38.53-18.92c5.93-5.86,12.48-11.51,20.45-14.35
		c5.4399-2.0699,11.35-1.29,17.04-1.42c25.44-0.13,50.92,0.24,76.35-0.1799c6.95-4.86,13.75-10.05,21.39-13.8301
		c6.92-3.34,14.74-4.0299,22.31-4.2999c24.64-0.28,49.39,2.92,72.92,10.2999c22.28,6.8401,45.59,10,68.87,10.1001
		c0.2-21.2201-6.21-42.01-15.97-60.6901c-8.6899-17.3099-17.62-34.5-26.82-51.5399c4.03-1.3301,8.0099-2.8601,12.11-3.9801
		c6.8899-0.96,13.8699-1.2999,20.78-2.1599c41.1599-4.49,81.99-11.9,122.1599-21.91c48.3301-11.99,98.2-17.39,147.97-16.95
		c28.1799,0.3999,56.8901-4.1101,84.5801,3.0499c4.49,0.86,8.6599,3.39,13.3499,3.09c82.6702-0.08,165.3501,0.05,248.03-0.0699
		c13.46-1.24,27.0601-2.63,40-6.75c2.0801-0.9301,3.1902-3.72,2.46-5.8199c-3.1399-3.54-7.3999-5.78-11.51-7.9601
		c-7.2898-3.63-14.8699-6.6-22.48-9.47c-23.5898-9.05-47.73-16.52-71.73-24.37c-19.3599-6.51-39.02-12.28-57.8098-20.36
		c-14.74-6.23-27.9402-15.54-40.3-25.59c-12.77-10.4701-24.0701-22.6001-34.3901-35.4601
		c-26.3398-31.5699-47.5498-66.9-69.8499-101.3199c-10.3401-16.63-21.5801-32.73-34.49-47.4601
		c-10.71-12.2699-22.6101-23.4199-33.5-35.5099c-14.3701-15.28-28.9801-30.3301-44.03-44.9401
		c-13.3901-13.13-27.3401-25.6801-40.72-38.83c3.5499-8.1801,5.71-16.8501,7.9299-25.4501c3.38-13.7799,6.36-27.65,9.77-41.4199
		c0.9299-3.5801,0.4299-7.3101,0.55-10.9501c-0.0601-25.8099,0.8298-52.12-6.1702-77.23
		c15.6602-12.7901,28.6101-28.69,38.6101-46.23c9.53-16.15,21.95-30.78,37.25-41.73c21.51,0.3,43.3799-1.21,64.45,4.06
		c21.04,4.59,39.99,15.1299,58.71,25.34c32.78,17.65,63.9001,38.2501,97.0601,55.2501c9.96,5.03,19.74,10.5001,30.1899,14.48
		c19.6702,7.85,40.9402,11.4399,62.0801,11.11c12.3-0.34,24.8699-3.5701,34.73-11.21c18.26-14.6601,31.28-34.7001,41.6799-55.4201
		c9.4202-19.48,15.9402-40.21,25.1001-59.81c11.27-1.43,22.3799-3.9,33.29-7.03c11.3899-3.24,23.1799-5.27,35.05-5.15
		c5.8999,0.09,12.0298,2.12,16.0798,6.58c2.9302,3.16,4.4399,7.42,7.72,10.3c5.7102,5.39,13.73,7.3199,21.3501,7.86
		c36.25,2.7,72.52,6.07,108.9099,5.68c9.55-0.11,19.29-2.17,27.53-7.17c7.48-4.44,13.4102-11.23,17.3501-18.94
		c3.28-6.18,5.2-12.95,7.3201-19.58c6.6699-22.35,10.46-45.86,8.3899-69.2c-0.46-6.3-2.96-12.17-5.52-17.86
		c2.4199-1.32,5.1399-1.84,7.8999-1.78c7.7002-0.0099,15.4602-0.23,23.1101,0.92c7.52,0.88,14.47,4.09,21.8401,5.62
		c10.1599,1.83,21.0398,2.79,30.9099-0.91c10.22-3.84,17.29-13.19,21.0701-23.12
		C1821.114,777.7867,1821.2241,768.3367,1821.104,759.1567z M1269.594,273.3767c2.1401-7.1899,5.02-14.3101,9.47-20.39
		c3.99-5.42,10.8801-9.0399,17.6802-7.88c2.6599,0.47,4.49,2.9199,4.8899,5.49c2.55,12.47,0.53,25.6101-4.5801,37.1899
		c-4.1299,9.1201-7.8198,18.4801-10.4299,28.1602c-5.1899-3.02-9.1099-7.8201-12.51-12.6702
		C1268.2341,294.6267,1266.594,283.3767,1269.594,273.3767z M1262.114,187.8667c-1,2.21-1.8899,4.6699-3.9199,6.15
		c-1.8401,1.46-4.27,1.59-6.46,2.0299c-0.02-2.75-0.02-5.5-0.02-8.25C1255.1741,187.7667,1258.634,187.7267,1262.114,187.8667z
		 M1198.574,212.1567c-0.8298,6.99-1.75,14.6,1.6702,21.09c2.4299,4.73,7.5498,7.48,12.71,8.08c4.75,0.48,9.54,0.15,14.27-0.4299
		c-5.3701,5.24-12.28,9.21-16.03,15.8899c-0.45,3.1301,2.5701,5.6201,4.02,8.2201c2.48,2.9501,1.71,6.96,1.8,10.49
		c-8.7302-5.4601-15.55-13.4501-21.0801-22.03c-3.0601-4.86-5.72-10.09-6.9102-15.74
		C1187.0439,228.3467,1190.0439,217.3767,1198.574,212.1567z M1182.4341,643.0366c2.55,4.9301,4.25,10.29,5.6799,15.6602
		c0.73,2.45,0.4001,5.8499-2.28,6.95c-6.1199,2.3699-12.9099,1.7-19.0798-0.0801c-36.8501-9.9299-71.2302-27.0699-104.6501-45.1799
		c-6.4299-3.9-13.76-7.45-17.8499-14.03c-1.8401-5.55,0.5298-12.89,6.0999-15.4299c4.9399-2.1801,10.1101-3.73,15.3-5.1801
		c-2.75-3.84-6.6101-6.78-9.8101-10.24c8.05-5.3099,16.3-11.1901,21.05-19.84c4.26-8.2001,10.49-15.3501,17.8301-20.9301
		c0.9199,14.4,7.4399,28.22,17.5698,38.4301c2.7002,3,6.25,5.22,8.3901,8.72c4.72,6.49,10.77,11.85,16.3499,17.6
		c8.51,8.5,17.02,17,25.51,25.51C1168.9141,631.2766,1175.0142,637.9567,1182.4341,643.0366z M1040.894,563.1167
		c-9.73,0.3999-19.3201-1.86-28.48-4.9299c-5.98-1.9501-12.26-5.3501-14.64-11.54c-2.42-6.75-0.4-14.03,1.5699-20.6301
		c2.4401-6.8099,5.0701-14.21,11.1201-18.6699c5.5999-3.95,13.77-4.62,19.6599-0.95c4.0901,2.54,4.23,8.1299,7.95,11
		c2.6201,2.28,6.21,2.76,9.5601,2.97c0.22,7.79,1.79,15.46,2.0701,23.24c-0.1501,4.04,3.0898,6.86,4.95,10.11
		c1.8601,2.65,1.4399,7.16-1.8301,8.51C1049.054,563.7966,1044.854,562.8667,1040.894,563.1167z M1058.7739,540.7567
		c-0.8599-2.2001-1.0198-4.54-0.5698-6.85c2.1699,0.6599,4.72,0.73,6.28,2.6299
		C1063.2542,538.7067,1061.354,540.5067,1058.7739,540.7567z M1069.4441,542.9167c1.5601,2.97,0.8,8.5499-3.5701,8.02
		c-4.9199,0.0999-4.74-6.78-2.23-9.49C1065.5042,540.2966,1068.6741,540.4967,1069.4441,542.9167z M1141.5042,544.7966
		c2.0598-0.0499,4.1299-0.0499,6.22-0.0399c-2.4102,2.0699-4.26,4.84-6.9001,6.6
		C1142.1541,549.4368,1141.2739,546.9567,1141.5042,544.7966z M1143.144,529.0667c-2.9099,2.1101-5.3999,4.9-6.54,8.3601
		c-1.71,5.22-1.0701,10.7899-1.1899,16.1899c-0.0801,2.76,0.3799,6.01,2.8599,7.7c0.75,0.8601,2.5601,1.05,2.4702,2.46
		c-5.1401,6.24-15.78,7.7301-21.4402,1.4001c-4.22-5.26-7.1499-12.3101-5.8999-19.1201c2.45-7.6199,8.4399-13.3699,14.0701-18.78
		c6.46-5.6699,13.3499-12.0898,22.27-13.1499C1149.7839,519.7367,1147.804,525.6567,1143.144,529.0667z M1170.604,367.5967
		c0.53-5.1399,0.1501-10.6599,2.8901-15.28c1.8298-3.5699,5.2998-5.84,8.8198-7.53c-0.0798,10.9801,0.3801,21.99-0.5698,32.9501
		c-0.6802,8.2999-2.8401,16.41-5.5901,24.25C1168.7939,392.0767,1169.9341,379.1968,1170.604,367.5967z M1178.324,491.8867
		c-0.1399,5.1799-1.5598,11.1-6.4199,13.85c-7.0901,3.91-15.5,1.5699-23.1399,3.15c-6.6602,1.25-14.6602,1.84-18.9602,7.8
		c-1.5598,1.8099-3,3.7-4.45,5.5898c-2.0898,0.02-4.1599,0.03-6.22,0.05c1.24-6.9199,3.3101-13.9399,7.77-19.5
		c3.4099-4.3199,8.51-7.1399,13.9199-8.01C1153.1841,492.6267,1165.7739,491.7467,1178.324,491.8867z M1125.2542,481.4667
		c-6.8-0.0199-13.5901,0-20.3801-0.01c-0.0801-7.23,2.5701-14.24,6.71-20.09c5.8101-8.4299,14.1001-15.29,23.8701-18.5901
		c0.1899,6.8201-2.28,13.3201-4.03,19.8201C1129.4941,468.9268,1127.344,475.1868,1125.2542,481.4667z M1091.884,218.7267
		c4.96-8.21,12.99-13.97,21.1499-18.71c0.77,6.08-1.96,11.6901-3.0698,17.5399c-3.1702,13.1101-5.3201,26.48-9.1501,39.4301
		c-7.3599-4.4401-11.3098-12.9401-12.03-21.2799C1087.9741,229.8967,1088.7441,223.7667,1091.884,218.7267z M1083.9941,354.7866
		c2.45-3.9399,2.46-8.73,4.0898-12.98c2.27-6.3599,7.03-11.5999,12.6501-15.24c3.2898,5.51,7.8599,10.1201,12.6899,14.3
		c1.9299,1.51,3.8401,3.24,6.22,4.04c7.5601-0.8701,15.27-2.3501,22.0601-5.9401c-1.25,5.78-3.1101,11.4601-6.1702,16.5599
		c-1.3799,4.0601-4.7998,7.01-6.1499,11.0601c0.6001,7.6801,4.6699,14.63,5.9299,22.21c0.27,4.3801,0.02,8.78,0.0901,13.17
		c-7.52-7.48-14.95-15.0299-22.51-22.45c-9.3301,7.0099-12.79,18.62-18.2,28.4401c-4.4001-5.4701-6.02-12.5601-9.4001-18.6401
		c-3.1499-6.08-7.6899-11.3699-12.9199-15.76c-0.04-3.58-2.53-6.1799-6.02-6.58
		C1073.2939,364.9867,1080.144,361.0967,1083.9941,354.7866z M1061.094,496.2666c7.3201,6.8801,14.4399,14.0701,22.6501,19.9102
		h6.7798c-3.1699-7.3601-6.3799-14.74-10.5999-21.5601c-3.5-5.4399-8.52-9.73-13.96-13.14c9.9199-0.41,19.8499,1.37,29.0999,4.99
		c7.8701,3.09,15.97,5.5,24.1802,7.53c0.4399,7.67-3.76,14.91-10.26,18.8199c-7.9402,4.76-16.78,8.46-26.05,9.42
		c-6.79,0.84-12.9199-2.86-18.54-6.14c-16.49-10.36-31.25-23.5801-43.1001-39.0601c-3-4.2799-6.25-8.97-6.21-14.3999
		c-0.0601-3.21,0-6.42,0.03-9.6101c8.1101,4.27,16.75,7.7101,24.1201,13.26c2.99,3.27,3.24,7.99,5,11.8601
		C1049.314,484.6467,1055.2441,490.4468,1061.094,496.2666z M1043.584,257.0967c-0.01,4.13,0.0701,8.26-0.0798,12.4
		c-4.8501-2.0699-6-7.64-6.0801-12.37C1039.4641,257.1067,1041.5142,257.0967,1043.584,257.0967z M1005.5439,352.3367
		c8.3101-10.3,12.25-23.26,15.5701-35.87c2.75,2.42,5.1599,5.53,5.72,9.25c2.1602,15.0699-3.1699,30.55-12.5999,42.27
		c-5.9001,7.26-15.1301,11.38-24.4202,11.5c-5.6799,0.1-12.6099-0.37-15.74-5.9401
		C985.4541,368.0466,997.1541,362.0667,1005.5439,352.3367z M933.264,402.0067c1.1801,5.33,3.4401,12.0399,9.66,13.0599
		c6.08,0.75,11.54,4.3601,14.9199,9.4301c-8.1499,5.37-14.3999,13.34-18.26,22.2799c-13.1199-4.5-25.5399-11.8298-34.75-22.3298
		C915.304,418.5667,927.874,413.5867,933.264,402.0067z M852.094,544.1567c2.66-13.27,3.66-26.8101,3.78-40.3201
		c5.92,2.1899,11.4,6.0601,14.3501,11.78c0.3398-7.4199-3.0701-14.25-4.2201-21.46c-2.5499-6.9401-4.1901-14.16-5.71-21.3801
		c-0.7401-3.48,0.7-6.8899,1.7-10.1499c2.42-6.72,5.1-13.37,8.2001-19.8c4.0699,7.3501,7.95,14.8101,12.1399,22.1001
		c0.3601-6.3401,1.03-13.27,5.4001-18.26c4.3198-5.1001,11.6199-6.51,17.97-5.55c6.3099,1.46,11.83,5.0801,17.1799,8.5901
		c11.61,7.72,21.46,17.7699,30.39,28.4099c4.42,5.53,9.5499,11.24,10.64,18.5c0.36,14.25-3.1899,28.54-9.89,41.12
		c-4.88,9.48-12.28,17.4301-16.85,27.1c-7.02,14.17-9.8701,30.0901-9.8701,45.8301c0.1101,7.3099-0.7699,14.95,1.9801,21.9299
		c4.35-5.8301,9.0299-11.8,10.87-18.97c1.27-3.96-2.2-7.1799-2.38-11.02c-0.9-8.36,0.64-16.73,2.12-24.9299
		c2.48-13.76,7.8-27.27,16.97-37.9601c9.49-11.0299,12.73-25.91,13.22-40.11c0.4001-6.6899-1.23-13.24-1.7999-19.85
		c-0.08-3.7101-2.75-6.7401-5.4501-8.9901c-2.6899-2.25-6.4199-2.0798-9.3699-3.74c-3.0701-2.2699-3.74-6.3699-3.6001-9.9399
		c13.13,0.3401,26,3.3201,38.76,6.16c9.42,2.13,19.3801,6.7699,23.75,15.92c1.8999,4.4099,3.4399,9.5599,2.24,14.3099
		c-4.6299,8.2001-14.74,11.42-19.02,19.9301c-7.27,13.52-5,29.52-2.6599,43.98c5.1199,7.8999,13.49,13.33,22.48,15.8101
		c9.3,2.5299,18.71,4.6399,28.2,6.3198c-6.9399,6.1101-11.5999,14.2101-17.98,20.8501c-11.6199,12.71-23.78,25.25-38.27,34.73
		c-7.5,4.76-16.1499,9.5901-25.37,7.74c-2.67-3.35-5.12-7.03-8.5699-9.6399c-6.63-1.8501-14.45-0.4202-19.28,4.7899
		c-0.05,0.4-0.15,1.2001-0.1899,1.61c4.2899,4.1799,10.34,5.74,15.8799,7.5801c6.8201,1.8999,13.8101,4.5898,21.01,3.4099
		c6.46-0.74,12.76-3.1,18.04-6.9199c7.11-4.77,11.5901-12.53,18.95-17c8.1501-5.47,18.29-7.1301,27.9302-6.04
		c7.8899,0.83,15.8999,1.76,23.4299,4.3899c6.1299,2.3,10.9099,7.4401,13,13.6201c-10.9102,3.24-20.1401,10.4199-27.8201,18.62
		c-7.1599,8.1901-18.5701,12.99-29.3599,10.0199c-10.6101,12.03-22.9202,22.6901-37.0201,30.4401
		c-18.89,10.59-40.5199,15.79-62.09,16.37c-9.24,0.53-18.38-1.23-27.54-2.12c-3.98-2.0499-7.1699-5.3199-10.3999-8.35
		c-4.04-3.96-8.03-8.9399-7.8-14.91c0.03-20.7899-0.0701-41.59,0.0601-62.38c5.3899-5.73,11.7999-10.4199,16.74-16.58
		c7.6699-9.2999,14.6899-19.74,17.0299-31.77c1.4301-7.7001,0.6901-15.5699,0.7101-23.35c-0.5601-20.3401-0.17-41.75-9.8701-60.27
		c-0.8799,13.71-3.59,27.53-1.1799,41.25c1.1499,8.78,5.35,16.8101,6.38,25.62c0.6901,6.1,1.5499,12.7101-1.4,18.38
		c-4.1599,8.61-10.73,15.74-17.3101,22.5601c-6.5898,6.6299-13.1799,13.51-21.3699,18.2c-5.5601-3.41-10.9601-8.54-11.3601-15.46
		C846.6541,584.6367,848.124,564.1067,852.094,544.1567z M882.4141,954.9667c-7.55,7.96-15.9399,15.16-25.22,21.03
		c-2.8801,2-6.66,1.49-9.9,1.03c-5.37-1.9399-8.28-7.36-10.58-12.21c-4.23-9.6801-6.6201-20.02-9.1801-30.23
		c-1.67-6.66-2.5599-13.49-2.3199-20.36c12.3799-6.09,25-11.67,37.4199-17.66c2.5601-1.5,5.47-0.2401,7.55,1.49
		c2.76,8.08,4.6799,16.43,6.97,24.66C879.824,933.2667,882.554,943.9967,882.4141,954.9667z M825.364,493.9667
		c2.9399-5.65,6.8401-10.7899,9.96-16.36c0.17-4.36-5.47-5.88-6.1399-10.03c2.49-2.45,4.09-5.6499,6.6299-8.0601
		c4.1101-4.0399,9.01-7.4399,11.9102-12.5499c-0.4301,35.27,2.0399,71.36-7.6501,105.7001c-1.0299,3.59-2.6099,6.99-4.3199,10.2999
		c-3.96-3.5399-6.88-8.0699-10.46-11.96C825.314,531.9967,825.1541,512.9767,825.364,493.9667z M856.594,791.9367
		c-10.45-5.44-20.7999-11.08-31.27-16.46c1-12.27,1.26-24.88-2.3398-36.79c-4.0801-13.9001-3.9302-28.52-3.8101-42.86
		c13.11,4.67,24.75,13.89,31.36,26.26c7.2999,14.03,13.6901,28.51,19.66,43.16c-7.6901,0.57-14.9401-3.46-19.65-9.34
		c-5.04-6.4-11.3199-11.99-18.92-15.14c-0.5,1.48-1.2,2.9-2.21,4.11c-0.17,6.32,3.4299,12.12,8.29,15.92
		c6.1099,5.11,13.97,7.19,20.75,11.19c6.9099,3.88,13.22,9,17.8199,15.52c-0.01,2.0699-0.01,4.16,0,6.25
		c-2.0499,2.03-4.08,4.0699-6.12,6.11c1.98,2.02,3.96,4.04,6.05,5.97c0.1699,20.95,0,41.91,0.09,62.87
		c-0.0599,2.21,0.2899,4.61-0.9601,6.6c-1.9199,3.4-3.2,7.24-5.52,10.35c-12.6799,6.06-25.45,11.98-38.1399,18.02
		c-2.52,0.13-5.92,1.2-7.78-1.06c-1.5901-1.53-3.11-3.12-4.6799-4.64c-0.1301-16.37-0.04-32.74-0.05-49.11
		c7.47,0.01,14.9399-0.02,22.4099,0.02c-7.46-3.45-14.96-6.8199-22.4299-10.2599c-0.49-13.06,1.36-26.03,3.23-38.92
		c0.6799-3.97,1.25-8.0099,2.73-11.78c5.5601-0.88,11.45,0.46,16.3801,3.19c5.3099,2.83,11.5499,2.68,17.3999,2.67
		C858.2841,792.9667,857.494,792.3167,856.594,791.9367z M586.6741,735.2766c2.0099,1.4501,4.53,2.7201,5.29,5.3
		c1.72,4.73,0.5,11.9901-5.39,12.95c-2.36-3.08-2.09-7.15-2.05-10.8C584.684,740.1467,584.644,737.1767,586.6741,735.2766z
		 M576.384,712.0566c2.58,1.22,5.27,2.8301,6.31,5.66c1.48,4.08,1.56,8.49,1.85,12.78c-4.1,0.01-8.2,0.01-12.29,0.01
		C573.6541,724.3567,574.934,718.1868,576.384,712.0566z M560.074,983.4667c1.98-0.01,3.97-0.01,5.96-0.02
		c15.08,13.9199,32.07,26.0699,51.1,33.99c8.69,3.72,17.89,6.04,26.74,9.34c12.32,4.46,24.34,9.76,35.9901,15.75
		c6.12,3.26,12.47,6.24,18.14,10.26c-13.13,0.13-26.38,0.63-39.34-1.9301c-25.79-4.97-51.09-15.47-70.71-33.2599
		c-9.33-9.3-18.66-18.5901-27.93-27.9601C560.0441,987.5667,560.054,985.5167,560.074,983.4667z M534.074,954.5967
		c2.09-0.54,4.58,0.23,6.44,1.27c0.4,2.43-1.96,3.99-3.45,5.5C534.024,960.7167,532.5441,957.2767,534.074,954.5967z
		 M528.324,953.3067c-1.64-3.11-1.05-6.86,0.36-9.92c1.86-0.59,4.34-1.28,5.69,0.66c1.62,2.46,1.36,5.85,0.58,8.59
		C534.014,955.3967,529.744,955.8267,528.324,953.3067z M537.584,795.7867c-3.79,12.2-7.82,24.33-11.46,36.58
		c-0.12-0.09-0.52,2.88-1,1.63c-1.2599-6.78-5.29-12.72-10.41-17.22c-4.05-3.61-7.53-8.45-7.69-14.07
		c-0.25-9.04,3.27-17.69,7.5-25.5099c2.79-5.17,6.54-10.36,12.21-12.5601c4.79-1.95,10.14-1.12,14.89,0.54
		c-1.73,6.05-2.34,12.83,0.4,18.69c2.31,5.27,6.91,9.11,11.82,11.89C548.4241,795.8167,543.004,795.7667,537.584,795.7867z
		 M423.704,413.4967c4.08-8.4501,12.12-15.84,22.02-15.63c-0.83,3.54-1.92,7.0801-2.07,10.75c-0.21,11.52-2.2,22.9199-4.16,34.25
		c-8.11-0.0901-16.22-0.02-24.34-0.04C415.2841,432.4867,419.074,422.5967,423.704,413.4967z M461.6841,869.1567
		c-3.2,1.06-5.69,3.42-8.71,4.81c-3.99,0.01-7.87-1.84-10.85-4.43c-3.83-3.28-7.41-7.19-8.87-12.13c2.72-1.45,5.4-3.55,5.95-6.76
		c0.82-5.32,0.18-10.74,0.39-16.09c3.97,2.41,8.53,3.51,12.58,5.73c1.79,0.98,2.95-1.26,4.55-1.59
		c5.89-1.34,11.51-3.8701,17.61-4.22c-4.38,4.65-8.56,10.42-8.15,17.14c0.19,6.89,5.13,12.32,10.2599,16.35
		C471.5641,866.8567,466.204,866.7267,461.6841,869.1567z M468.7541,613.7666c-2.9301-7.0898-5.07-14.7899-10.2401-20.6599
		c-5.2-6.4399-11.99-11.53-19.54-14.88c-11.21-5.61-22.88-10.22-34.23-15.5399c-7.49-3.8801-15.5-7.26-21.49-13.3901
		c-3.7401-3.8599-7.63-8.1899-8.4901-13.7c-2.45-11.8301-3.54-23.89-4.66-35.89c-3.91-12.2599-9.1-24.08-14.72-35.64
		c-6.49-12.73-10.05-27.0699-9.52-41.3799c3.16-21.4601,10.19-42.1001,17.6-62.4102c4.72-11.7,8.37-24.3999,17.09-33.8899
		c4.61,0.13,10.05-0.67,13.66,2.88c3.82,4.11,3.56,10.0599,4.05,15.2899c0.59,10.8301,1.53,22.3101-3.09,32.47
		c-1.96,4.5-5.65,7.8701-9.72,10.4501c-7.89,5.29-10.42,15.2999-10.97,24.25c-0.69,21.58,2.24,43.25,8.37,63.9401
		c5.56,19.1599,8.51,38.98,9.92,58.8499c6.85-10.8999,9.08-24.2799,7.02-36.9099c-1.96-13.02-0.16-26.53,5.18-38.5601
		c5.58-0.74,9.84,3.6101,14.27,6.28c-0.11,18.99-0.03,37.99-0.04,56.98c3.4-0.01,6.79-0.01,10.19,0
		c0.02-23.1-0.03-46.2,0.02-69.2999c6.06,4.0299,12.07,8.15,18.21,12.0699c0.29,21.03-0.09,42.0701,0.2,63.1001
		c5.91-8.29,8.83-18.3501,10.16-28.3501c1.22-9.55,2.5-19.1,4.13-28.59c2.38-1.01,5.05-2.74,7.61-1.17
		c9.81,2.8501,19.28,6.8101,28.4,11.39c7.48,4.1,15.3,8.4401,20.51,15.39c7.94,12.29,8.48,27.5701,8.75,41.75
		c-4.33-0.01-8.88-0.3-12.68-2.6c-2.56-1.5-4.34-4.2301-4.57-7.2001c-0.81-6.8999-1-13.84-1.14-20.78
		c-5.3199,0.3-10.12,2.7201-15.23,3.9001c-4.42,0.7899-7.58-2.8301-9.72-6.1301c-4.11,2.4102-7.77,5.8-9.87,10.1301
		c-2.05,1.4199-1.91,3.95-2.04,6.1699c3.19,0.38,6,2.03,8.84,3.4299c17.39,9,31.79,22.7101,44.75,37.2001
		c11.74,13.54,21.44,29.76,23.63,47.84c0.58,7.48,1.18,15.8601-3.39,22.3101c-2.63,4.1599-7.85,5.4099-10.81,9.25
		c-3.08,3.46-3.81,8.23-3.78,12.7c4.65-2.99,10-4.79,15.41-5.83c2.5-0.6801,3.95,1.89,4.95,3.73c3.14,5.75,2.39,12.85-0.29,18.63
		c-4.5,9.8101-12.15,17.6799-19.6,25.3101c-5.85,5.73-11.75,11.6099-18.95,15.6199c-5.91-3.48-8.99-9.9099-11.84-15.8499
		C488.954,669.4167,478.834,641.5767,468.7541,613.7666z M519.134,960.8467c-3.91-7.59-7.64-15.28-11.5-22.89
		c-1-1.69-0.57-3.7-0.64-5.53c5.48,2.85,9.78,7.9,11.1801,13.98C519.4041,951.1167,519.274,956.0167,519.134,960.8467z
		 M521.804,969.6367c-1.02-2.74-0.8-6.68,1.9301-8.34c2.04-0.62,4.54,0.05,5.14,2.33c1.47,2.71-0.53,5.25-1.67,7.6299
		C525.3541,971.0267,522.884,971.6066,521.804,969.6367z M527.4041,973.6066c-0.56-2.4299,1.79-3.9999,2.02-6.28
		c1.58,0.1201,3.54-0.49,4.73,0.95c1.6,2.04,1.65,4.96,0.93,7.36C533.204,978.6667,526.9841,977.6567,527.4041,973.6066z
		 M535.4741,980.6867c0.39-1.23,1.17-2.24,1.88-3.28c0.9-3.61,2.55-6.94,4.3-10.2c1.97,1.33,3.96,2.64,5.98,3.91
		c-2.57,2.13-5.33,4.37-6.4,7.66c-1.36,3.51-0.56,7.3,0.3,10.83C538.704,987.2167,537.4041,983.7267,535.4741,980.6867z
		 M550.9041,998.8067c-2.24,1.78-6.71,1.35-7.11-1.98c-0.32-2.37-0.06-5.53,2.2599-6.8201
		C551.304,987.8267,553.204,995.3766,550.9041,998.8067z M550.194,980.5867c-0.36-2.99-0.88-6.78,1.7-8.9601
		c1.82-0.6499,4.28-0.49,5.23,1.4701c1.29,3.1,1.48,7.37-1.07,9.9099C553.804,984.2466,550.7341,983.1967,550.194,980.5867z
		 M782.824,1066.7867c-9.6099,5.6901-20.98,7.35-31.97,7.8c-13.33,0.9299-26.6899,0.63-40.03,0.6899
		c-10.39,0.1901-20.7199-1.3099-30.9799-2.72c-32.71-4.55-64.92-14.1801-93.95-30.0601c-10.2-5.9099-21.11-12-27.39-22.3901
		c-3.8-6-5.01-13.24-4.5-20.23c10.65,14.67,23.99,27.4702,39.38,37.0901c11.72,7.36,24.63,12.75,37.98,16.34
		c23.89,6.85,48.6299,10.74,73.47,11.64c16.7199,0.37,33.46-0.02,50.16-0.98c12.5599-0.78,24.92-4.53,35.7001-11.0601
		C790.624,1058.5167,787.6841,1063.9268,782.824,1066.7867z M835.5341,1097.7367c-11.7001-10.6699-23-21.7699-34.6901-32.46
		c13.3-20.8199,35.3901-34.8099,59.0701-40.9299C851.884,1048.8468,843.594,1073.2467,835.5341,1097.7367z M858.1641,998.6867
		c-2.8301-1.96-4.98-5.03-5.3301-8.49c10.1001-7.36,19.6901-15.4301,29.6401-22.9901c5.8298,8.71,7.0999,19.44,12.1799,28.55
		c-7.86,3.53-15.2,8.75-23.8201,10.2101C866.114,1004.6066,862.074,1001.5467,858.1641,998.6867z M917.084,1130.7168
		c0.26,9.0199-3.99,17.2999-8.1299,25.0499c-4.23,7.42-8.8,15-15.6801,20.28c-3.7899,3.05-9.03,4.13-13.7201,2.9
		c-3.0099-1.02-3.4099-4.52-3.2899-7.23c0.09-23.6901-0.15-47.38,0.14-71.0601c0.52-20.65,3.8999-41.61,12.85-60.38
		c3.4801-7.49,11.4701-12.0699,19.66-11.92c1.9399,1.9,3.8,3.9701,4.75,6.5801c1.6799,4.38,3.54,8.9,3.4299,13.6899
		C917.064,1075.9867,917.064,1103.3468,917.084,1130.7168z M1023.9341,862.6067c-4.3701,22.42-10.1101,44.56-17.1401,66.29
		c-4.3799,13.1-9.9099,25.84-16.7899,37.84c-3.99,6.84-8.58,13.61-15.0499,18.35c-4.28,3.0499-9.6901,5.1899-14.99,4.2
		c-3.1501-1.05-6.5901-2.42-8.3301-5.42c0.1001,1.8601-0.0701,3.77,0.22,5.64c1.48,3.25,3.73,6.1,5.39,9.27
		c1.55,2.6901-0.38,6.62-3.5299,6.89c-4.8701,0.84-8.3801,4.73-12.9501,6.27c-4.87,0.23-9.84-2.8201-11.77-7.34
		c-2.36-5.3101-1.9301-11.37-0.49-16.8501c6.35-25.8799,19.14-49.6299,33.64-71.79c3.26-4.57,6.4099-9.7599,11.7-12.2
		c-3.4399-2.64-5.6699-6.71-5.6799-11.07c-0.26-7.29,1.3201-15.68,7.61-20.21c6.02-4.39,13.92-3.96,20.97-3.36
		c-4.66-1.89-9.37-3.65-14.14-5.24c-3.46-1.27-7.3699-3.41-8.1899-7.32c-1.65-6.77,3.61-12.2,6.05-18.03
		c15.6199,0.04,31.23,0.01,46.8499,0.01C1027.0339,846.6567,1025.384,854.6367,1023.9341,862.6067z M978.2841,828.4067
		c0.15-6.03,0.17-12.27,2.37-17.97c1.9099-4.78,7.63-5.98,12.21-6.33c10.4399-0.46,21.1799,0.66,30.9199,4.63
		c7.3901,3.4,9.77,12.22,9.6101,19.72C1015.0239,828.3767,996.6541,828.4767,978.2841,828.4067z M1144.4041,702.2267
		c-4.75,3.89-10.1599,6.91-15.4299,10.0499c-4.3501-2.3398-6.51-7.0499-7.46-11.6799c-1.1101-5.6499-2.1201-11.34-2.4502-17.09
		c-4.0598,0.0099-8.1099,0.0099-12.1599,0c2.3101,10.2799,5.21,20.5299,5.6499,31.12c1.1101,16.34,0.1401,32.72-0.2898,49.08
		c-0.1501,8.4901-0.8301,17.19-4.2202,25.09c-2.75,6.84-7.5999,12.67-13.3899,17.17c-15.6599-0.16-31.4299,0.79-46.96-1.68
		c-16.96-2.46-33.46-8.99-46.9-19.73c-19.63-15.69-40.17-30.23-61.3-43.84c-0.42,6.16,0.84,12.57,4.7301,17.52
		c3.9299,5,8.4399,9.75,13.96,13.02c-8.28,0.08-16.5701,0.08-24.8501,0.02c-11.53-11.62-23.1399-23.16-34.7-34.74
		c0.3301-1.95-0.78-4.56,0.6699-6.08c13.4501-2.5499,26.9302-4.97,40.4001-7.47c17.5699-2.83,35.5999-7.4,49.8599-18.6
		c13.0701-10.7,25.8401-21.8,39.52-31.73c11.52-7.96,25.6602-12.25,39.6899-11.3901c5.2202,0.3301,10.78,2.2201,13.9502,6.6301
		c2.9199,3.8699,3.53,8.86,3.78,13.5599c-9.2302,0.4501-18.4102,2.1-27.1702,5.04c-5.3899,1.89-10.3398,6.1901-11.3101,12.0499
		c-1.1199,3.23,1.1702,6.1001,1.8601,9.1401c3.8801-5.25,8.4199-10.8,15.0601-12.4501c10.4199-2.0599,22.0701-2.12,30.8-8.9601
		c2.8298-2.0299,4.52-5.25,5.2798-8.5999c1.53-6.05,1.6401-12.3501,1.6602-18.5601c11.3999-0.01,23.03,2.1599,33.24,7.38
		c7.3201,3.84,11.28,12.0499,11.6199,20.08C1147.7241,691.8467,1148.0239,697.9368,1144.4041,702.2267z M1339.804,1012.5967
		c-5.24,3.4099-10.0498,7.46-14.6199,11.71c-7.48-8.8201-14.9399-17.6401-22.4001-26.46c5.99-0.0601,11.9802-0.04,17.9802-0.03
		c-4.29-8.1-6.3501-17.38-5.6702-26.53c7.8,9.55,20.23,14.55,32.45,14.1901c0.8,8.9199-0.2,19.34,6.23,26.5
		C1349.334,1009.8467,1343.9941,1009.9367,1339.804,1012.5967z M1379.2839,930.3267c0.99,1.55,2.9702,1.8,4.6001,2.4
		c-6.6101,2.71-13.1799,5.49-19.78,8.2c-4.4399-3.28-9.54-5.43-14.4299-7.89c-2.53-1.47-5.4001-3.16-6.1599-6.19
		c0.2998-4.77,5.1299-7.63,6.0598-12.19c0.26-5.6,0.01-11.22,0.1001-16.82c11.4399,1.96,22.8599,4.05,34.3101,5.98
		c-2.9001,5.89-4.3701,12.34-5.4102,18.79C1378.304,925.1467,1377.7939,928.0367,1379.2839,930.3267z M1394.634,869.2267
		c-0.1599-4.7-1.3601-9.87-5.23-12.91c-4.98-3.65-11.1799-5.25-17.27-5.4901c4.4299-6.54,11.79-10.67,19.5801-11.64
		c5.29-0.56,11.1099-1.06,15.9099,1.74c5.8901,3.46,9.47,9.79,11.3,16.2C1410.804,861.0967,1402.7241,865.1767,1394.634,869.2267z
		 M1681.824,921.5167c-12.4099,5.94-26.55,4.87-39.9099,4.73c-4.22-0.49-7.6401-3.21-10.7-5.92
		c5.1799-8.02,14.79-11.3,23.6099-13.48c11.74-2.48,23.6201-4.61,35.6401-4.99
		C1690.4841,909.0867,1688.7939,917.7867,1681.824,921.5167z M1682.2739,891.6667c0.1301-6.02-0.8899-12.65,2.5801-17.98
		c3.46-5.13,10.1001-6.57,15.9299-6.42c1.8501,1,3.8501,1.69,5.9402,2.15C1702.7642,880.2767,1693.1841,888.3367,1682.2739,891.6667
		z M1762.834,793.4667c-4.8799-0.31-9.95-0.25-14.48-2.3c-5.02-2.18-9.02-5.97-13.05-9.55c-3.4199,7.1-10.75,12.02-18.6799,12.04
		c-7.22-0.15-15.01,1.97-19.4199,8.08c-0.76,1.35-2.7,2.86-2.0901,4.48c4.8701,3.39,10.6599,7.43,10.9199,14.01
		c0.55,8.57,2,17.8-1.74,25.88c-5.0598,10.49-16.5798,17.14-28.1299,17.1c0.03-5.7,0.99-11.54,4.0901-16.43
		c3.2998-5.37,4.3198-11.85,3.95-18.07c-0.75-6.42-5.3701-11.57-10.3701-15.27c-9.4199-6.94-20.5898-10.89-31.3999-15.07
		c-6.98-2.22-14.2-5.31-21.6602-4.26c-8.6699,2.51-16.0298,8.05-24.1399,11.85c8.8301,2.82,18.21,2.84,27.3401,4.01
		c13.0698,1.61,26.6899,2.73,38.5,9.08c4.5898,2.31,8.3499,6.57,9.22,11.74c1.52,9.17-2.0901,18.58-8.1201,25.43
		c-4.25,4.68-7.72,10.22-9.0798,16.45c-1.04,5.1-1.6001,11.16,1.8899,15.5c2.4099,3.03,6.48,3.09,9.95,3.92
		c-0.6199,2.68-2.1099,5.6-5.27,5.67c-11.2998,0.3-22.53,1.7599-33.8198,2.17c0.0598-10.15,1.0999-21.56,8.6099-29.18
		c6.6301-6.8,8.1401-16.8,7.6101-25.91c-13.95,11.85-29.5601,21.91-46.5701,28.76c-11.8101,4.43-24.5701,6.65-37.1699,5.56
		c-11.79-2.79-22.23-9.66-34.1501-12.01c-1.3599,1.03-2.8699,1.83-4.46,2.39c2.6201,4.2,5.46,8.33,8.96,11.88
		c2.5601,2.54,6.0601,4.29,9.75,4.13c22.99,0.01,45.99-0.02,68.99,0.01c-6.1499,8.28-12.29,16.57-18.0898,25.1
		c-4.1301,6.25-12,8.16-18.98,9.05c-12.29,1.26-25.4102,0.64-36.4502-5.44c-8.73-4.7-14.98-13.12-18.1499-22.4
		c-13.1799-0.68-26.7,1.14-38.8401,6.51c-12.1199,5.72-25.6599,7.6-38.96,7.59c1.6899-6.83,2.95-13.79,5.53-20.36
		c3.75-9.91,7.6499-19.84,13.0801-28.97c2.1599-3.85,3.74-8.0099,6.0698-11.7599c11.75-7.75,25.9602-10.91,39.8901-11.4901
		c11.8201-0.8,23.5801-4,33.8101-10.06c14.5999-6.89,27.3999-16.8799,40.5598-26.11c4-3.22,8.7302-5.88,12-9.81
		c0.6401-7.59,8.0701-11.5,14.6201-13.28c10.1101-2.59,20.46-4.8,30.95-4.87c4.1301,0.14,9.05,0,12.0601,3.37
		c2,2.21,5.1399,2.56,7.97,2.71c12.71,0.12,25.5-1.22,37.72-4.82c8.52-2.47,17.25-4.31,26.1301-4.91
		c8.6799-0.52,17.74-1.06,26.0798,1.91c11.5901,4.6,18.21,16.13,28.8701,22.16c3.2,1.83,6.8,2.76,10.27,4
		C1777.584,793.9667,1770.1941,793.9167,1762.834,793.4667z M1804.6941,777.4867c-9.6799-0.14-19.53-1.69-28.24-6.08
		c9.4099-0.24,18.8398-0.03,28.26-0.1C1804.6841,773.3567,1804.6941,775.4167,1804.6941,777.4867z"/>
	<path d="M376.3441,348.9467c3.44-3.34,6.81-6.75,10.19-10.16c-0.02,6.14,0.03,12.28-0.03,18.43
		C381.574,357.2867,377.334,353.7667,376.3441,348.9467z"/>
	<path d="M884.584,482.6767c0.03-4.25-0.97-9.33,2.16-12.77c3.76,2.16,3.92,6.94,3.78,10.77c-0.14,2.56-0.26,5.68-2.54,7.34
		C885.124,488.3467,884.804,484.6967,884.584,482.6767z"/>
	<path d="M876.4141,528.5967c3.56,7.19,5.84,15.03,5.84,23.11c-0.1,5.4901,1.22,11.67-1.85,16.59c-3.41,3.23-8.27,4.82-10.89,8.9
		c-3.09,4.21-3.2,9.61-3.55,14.62c-0.88-1.59-1.84-3.23-1.83-5.09c-0.58-10.55,0.68-21.3,4.79-31.09
		C872.564,546.9667,874.7341,537.8168,876.4141,528.5967z"/>
	<path d="M972.0941,533.9468c1.84-0.41,2.78,1.54,3.73,2.7599c3.86,6.73,3.55,16.67-3.06,21.63c-1.23-0.92-1.98-2.28-2.14-3.77
		c-0.62-4.62-0.57-9.3-0.2599-13.94C970.5341,538.3367,970.684,535.8568,972.0941,533.9468z"/>
	<path d="M979.244,557.1768c5.2401-1.2,6.02,5.87,4.71,9.4c-0.73,3.64-6.61,3.6-7.25-0.0699
		C975.9841,563.4368,975.644,558.5167,979.244,557.1768z"/>
	<path d="M958.554,565.3367c1.07-2.83,5.6201-2.93,6.78-0.11c1.05,2.68,1.13,5.99-0.26,8.57c-1.08,2.11-3.64,1.55-5.51,1.23
		C957.694,572.1868,957.5341,568.5068,958.554,565.3367z"/>
	<path d="M965.434,576.4767c1.51-1.75,3.86-0.89,5.62-0.06c0.32,1.02,0.65,2.05,1,3.08c1.9901-0.06,4.73-0.14,5.55,2.16
		c1.05,2.9,1.11,6.53-0.72,9.15c-1.56,1.35-3.62,0.86-5.37,0.26c-0.88-1.7401-1.32-3.65-1.5-5.57c-1.88-0.07-4.47,0.46-5.45-1.64
		C963.624,581.4968,963.874,578.5068,965.434,576.4767z"/>
	<path d="M873.624,586.6068c1.54-1.44,3.72-0.71,5.51-0.22c1.28,3.09,1.93,6.8,0.25,9.88c-1.42,2.48-5.66,2.06-6.51-0.67
		C871.9141,592.7468,871.7841,589.1467,873.624,586.6068z"/>
	<path d="M1069.6541,586.4767c1.4601-0.99,3.7401-1.15,5.1101,0.13c1.35,1.43,1.36,3.52,1.58,5.36c2.26-0.6,5.14,0.04,5.62,2.7
		c0.72,3.17,0.98,8.41-3.0699,9.34c-3.64,0.58-4.7301-3.38-4.79-6.19c-2,0.15-4.5601,0.11-5.34-2.14
		C1067.7542,592.7468,1067.5941,589.0068,1069.6541,586.4767z"/>
	<path d="M860.0441,942.6868c2.05-0.03,4.11-0.01,6.18,0.06c-4.32,4.3-10.22,7.02-16.41,6.07
		C853.764,947.8467,857.144,945.4667,860.0441,942.6868z"/>
</g>
</svg>
