<?xml version="1.0" encoding="UTF-8"?>
<svg xmlns="http://www.w3.org/2000/svg" xmlns:xlink="http://www.w3.org/1999/xlink" width="48px" height="48px" viewBox="0 0 48 48" version="1.1">
<g id="surface1">
<path style=" stroke:none;fill-rule:nonzero;fill:rgb(0%,0%,0%);fill-opacity:1;" d="M 23.671875 0.0390625 C 23.621094 0.0585938 23.550781 0.144531 23.507812 0.242188 C 23.421875 0.4375 23.449219 0.609375 23.59375 0.824219 C 23.734375 1.027344 23.867188 1.105469 24.066406 1.101562 C 24.429688 1.09375 24.738281 0.820312 24.777344 0.46875 C 24.796875 0.3125 24.789062 0.292969 24.644531 0.148438 L 24.496094 0 L 24.128906 0.00390625 C 23.921875 0.00390625 23.71875 0.0195312 23.671875 0.0390625 Z M 23.671875 0.0390625 "/>
<path style=" stroke:none;fill-rule:nonzero;fill:rgb(0%,0%,0%);fill-opacity:1;" d="M 19.367188 1.53125 C 18.90625 1.6875 18.550781 2 18.359375 2.398438 C 18.246094 2.636719 18.242188 2.664062 18.242188 3.152344 L 18.242188 3.664062 L 18.40625 3.984375 C 18.648438 4.476562 19 4.734375 19.617188 4.859375 C 19.960938 4.929688 20.25 4.890625 20.644531 4.703125 C 20.835938 4.617188 21.265625 4.1875 21.367188 3.984375 C 21.5625 3.609375 21.550781 2.726562 21.347656 2.355469 C 21.175781 2.039062 20.65625 1.625 20.304688 1.515625 C 20.058594 1.445312 19.601562 1.453125 19.367188 1.53125 Z M 19.367188 1.53125 "/>
<path style=" stroke:none;fill-rule:nonzero;fill:rgb(0%,0%,0%);fill-opacity:1;" d="M 22.8125 1.96875 C 22.582031 2.066406 22.488281 2.347656 22.582031 2.664062 C 22.644531 2.867188 22.800781 2.960938 23.085938 2.960938 C 23.394531 2.960938 23.585938 2.757812 23.585938 2.421875 C 23.585938 2.058594 23.167969 1.8125 22.8125 1.96875 Z M 22.8125 1.96875 "/>
<path style=" stroke:none;fill-rule:nonzero;fill:rgb(0%,0%,0%);fill-opacity:1;" d="M 25.734375 2.90625 C 25.515625 3 25.4375 3.378906 25.578125 3.640625 C 25.679688 3.832031 26.074219 3.882812 26.296875 3.726562 C 26.546875 3.558594 26.585938 3.277344 26.394531 3.058594 C 26.226562 2.863281 25.96875 2.804688 25.734375 2.90625 Z M 25.734375 2.90625 "/>
<path style=" stroke:none;fill-rule:nonzero;fill:rgb(0%,0%,0%);fill-opacity:1;" d="M 25.488281 4.605469 C 25.402344 4.699219 25.40625 4.863281 25.496094 4.914062 C 25.613281 4.972656 25.792969 4.957031 25.875 4.875 C 25.976562 4.773438 25.96875 4.710938 25.851562 4.617188 C 25.730469 4.519531 25.566406 4.515625 25.488281 4.605469 Z M 25.488281 4.605469 "/>
<path style=" stroke:none;fill-rule:nonzero;fill:rgb(0%,0%,0%);fill-opacity:1;" d="M 22.257812 6.886719 C 21.371094 7 20.941406 7.160156 20.75 7.433594 C 20.617188 7.625 20.625 7.683594 20.832031 8.375 C 21.011719 8.964844 21.042969 9.296875 20.957031 9.675781 C 20.867188 10.097656 20.867188 10.105469 21.003906 10.25 C 21.113281 10.359375 21.183594 10.394531 21.523438 10.476562 C 22.496094 10.710938 22.84375 10.742188 24.375 10.742188 C 25.753906 10.742188 25.792969 10.738281 26.296875 10.640625 C 26.914062 10.515625 27.273438 10.402344 27.363281 10.304688 C 27.421875 10.238281 27.433594 10.113281 27.457031 9.167969 C 27.480469 8.199219 27.488281 8.101562 27.558594 7.957031 C 27.605469 7.871094 27.636719 7.734375 27.636719 7.648438 C 27.636719 7.515625 27.613281 7.472656 27.453125 7.3125 C 27.238281 7.097656 27.050781 6.996094 26.730469 6.914062 C 26.386719 6.828125 22.859375 6.800781 22.257812 6.886719 Z M 26.03125 7.289062 C 26.777344 7.355469 26.925781 7.398438 26.925781 7.566406 C 26.925781 7.640625 26.878906 7.714844 26.785156 7.808594 C 26.554688 8.027344 26.453125 8.0625 25.613281 8.21875 C 25.191406 8.296875 25.027344 8.300781 24.019531 8.304688 C 22.925781 8.304688 22.878906 8.300781 22.40625 8.203125 C 21.878906 8.089844 21.484375 7.925781 21.386719 7.777344 C 21.328125 7.691406 21.332031 7.679688 21.398438 7.609375 C 21.542969 7.449219 21.832031 7.34375 22.367188 7.253906 C 22.761719 7.1875 25.101562 7.210938 26.03125 7.289062 Z M 26.03125 7.289062 "/>
<path style=" stroke:none;fill-rule:nonzero;fill:rgb(0%,0%,0%);fill-opacity:1;" d="M 24.835938 7.339844 C 24.871094 7.347656 24.921875 7.347656 24.949219 7.339844 C 24.972656 7.328125 24.945312 7.320312 24.882812 7.320312 C 24.820312 7.320312 24.796875 7.328125 24.835938 7.339844 Z M 24.835938 7.339844 "/>
<path style=" stroke:none;fill-rule:nonzero;fill:rgb(0%,0%,0%);fill-opacity:1;" d="M 25.6875 7.765625 C 24.808594 7.820312 23.542969 7.914062 23.410156 7.933594 C 23.273438 7.960938 23.261719 7.992188 23.351562 8.085938 C 23.410156 8.140625 23.503906 8.144531 24.429688 8.125 C 25.667969 8.101562 26.550781 7.992188 26.667969 7.851562 C 26.6875 7.824219 26.703125 7.792969 26.695312 7.785156 C 26.65625 7.742188 26.179688 7.734375 25.6875 7.765625 Z M 25.6875 7.765625 "/>
<path style=" stroke:none;fill-rule:nonzero;fill:rgb(0%,0%,0%);fill-opacity:1;" d="M 20.269531 8.777344 C 20.167969 8.816406 19.980469 8.878906 19.855469 8.914062 C 19.449219 9.027344 18.867188 9.265625 18.644531 9.414062 C 18.523438 9.496094 18.296875 9.691406 18.140625 9.84375 C 17.90625 10.078125 17.839844 10.167969 17.792969 10.324219 C 17.71875 10.578125 17.71875 10.996094 17.796875 11.148438 C 17.980469 11.507812 18.53125 11.976562 19.0625 12.226562 C 19.515625 12.4375 20.535156 12.769531 21.074219 12.878906 C 22.242188 13.113281 22.785156 13.171875 23.976562 13.191406 C 26.59375 13.230469 27.640625 13.039062 29.398438 12.195312 C 29.839844 11.984375 29.890625 11.949219 30.210938 11.617188 C 30.402344 11.425781 30.574219 11.226562 30.601562 11.179688 C 30.660156 11.0625 30.65625 10.546875 30.59375 10.347656 C 30.515625 10.074219 30.007812 9.589844 29.488281 9.289062 C 29.171875 9.101562 28.042969 8.757812 27.832031 8.78125 L 27.730469 8.792969 L 27.707031 9.507812 C 27.699219 9.984375 27.671875 10.253906 27.636719 10.320312 C 27.492188 10.621094 26.667969 10.894531 25.519531 11.023438 C 25.3125 11.046875 25.089844 11.082031 25.027344 11.105469 C 24.734375 11.195312 23.984375 11.25 23.019531 11.25 C 22.027344 11.25 21.714844 11.226562 21.132812 11.113281 C 20.816406 11.050781 20.398438 10.890625 20.398438 10.828125 C 20.398438 10.808594 20.445312 10.667969 20.496094 10.523438 C 20.613281 10.203125 20.851562 9.21875 20.851562 9.046875 C 20.851562 8.984375 20.835938 8.921875 20.8125 8.90625 C 20.765625 8.875 20.664062 9.085938 20.664062 9.222656 C 20.664062 9.28125 20.648438 9.34375 20.625 9.355469 C 20.601562 9.371094 20.585938 9.253906 20.585938 9.042969 C 20.585938 8.652344 20.585938 8.652344 20.269531 8.777344 Z M 20.269531 8.777344 "/>
<path style=" stroke:none;fill-rule:nonzero;fill:rgb(0%,0%,0%);fill-opacity:1;" d="M 20.683594 10.324219 C 20.625 10.410156 20.511719 10.707031 20.511719 10.769531 C 20.511719 10.882812 20.722656 10.546875 20.789062 10.320312 C 20.828125 10.210938 20.757812 10.210938 20.683594 10.324219 Z M 20.683594 10.324219 "/>
<path style=" stroke:none;fill-rule:nonzero;fill:rgb(0%,0%,0%);fill-opacity:1;" d="M 19.296875 12.757812 C 19.265625 12.824219 19.160156 13.085938 19.054688 13.339844 C 18.949219 13.59375 18.777344 14.015625 18.671875 14.277344 C 18.566406 14.542969 18.347656 15.058594 18.1875 15.429688 C 18.027344 15.800781 17.816406 16.289062 17.722656 16.519531 C 17.480469 17.089844 17.234375 17.523438 17.09375 17.644531 C 17.023438 17.699219 16.832031 17.832031 16.667969 17.941406 C 15.703125 18.570312 14.996094 19.109375 14.363281 19.703125 C 13.75 20.273438 12.730469 21.339844 12.515625 21.632812 C 12.429688 21.757812 12.246094 22.003906 12.113281 22.179688 C 11.773438 22.625 11.351562 23.292969 11.195312 23.617188 C 11.117188 23.769531 11.011719 23.964844 10.949219 24.050781 C 10.617188 24.542969 9.925781 26.398438 9.699219 27.429688 C 9.453125 28.53125 9.429688 28.796875 9.433594 30.429688 C 9.433594 31.828125 9.441406 31.921875 9.535156 32.558594 C 9.59375 32.925781 9.683594 33.371094 9.734375 33.550781 C 9.789062 33.734375 9.882812 34.050781 9.941406 34.257812 C 10.1875 35.128906 10.398438 35.695312 10.710938 36.335938 C 10.84375 36.613281 10.976562 36.871094 11.003906 36.898438 C 11.027344 36.929688 11.085938 37.046875 11.128906 37.15625 C 11.230469 37.410156 11.914062 38.441406 12.382812 39.046875 C 13 39.847656 14.085938 40.949219 14.925781 41.636719 C 15.246094 41.898438 16.1875 42.566406 16.480469 42.734375 C 17.855469 43.542969 19.019531 44.070312 19.949219 44.304688 C 20.085938 44.339844 20.320312 44.40625 20.476562 44.457031 C 20.984375 44.617188 22.078125 44.804688 22.988281 44.890625 C 23.707031 44.953125 25.335938 44.949219 26.023438 44.871094 C 26.933594 44.773438 27.878906 44.628906 28.253906 44.527344 C 29.511719 44.1875 29.824219 44.085938 30.632812 43.742188 C 31.21875 43.496094 31.789062 43.214844 32.074219 43.035156 C 32.183594 42.964844 32.332031 42.882812 32.40625 42.851562 C 32.578125 42.78125 33.113281 42.429688 33.382812 42.214844 C 33.492188 42.128906 33.667969 42.003906 33.777344 41.945312 C 33.886719 41.878906 34.15625 41.675781 34.375 41.492188 C 34.929688 41.027344 36.308594 39.648438 36.601562 39.261719 C 36.730469 39.085938 36.980469 38.765625 37.144531 38.542969 C 37.3125 38.320312 37.472656 38.09375 37.5 38.035156 C 37.53125 37.976562 37.585938 37.878906 37.632812 37.820312 C 37.972656 37.324219 38.789062 35.714844 38.953125 35.210938 C 39.070312 34.859375 39.359375 33.835938 39.488281 33.335938 C 39.886719 31.765625 39.878906 28.996094 39.46875 27.378906 C 39.089844 25.867188 38.773438 25.027344 38.164062 23.890625 C 37.621094 22.882812 37.210938 22.277344 36.417969 21.300781 C 35.992188 20.777344 34.964844 19.734375 34.625 19.476562 C 34.472656 19.363281 34.34375 19.257812 34.332031 19.238281 C 34.253906 19.105469 33.097656 18.304688 32.234375 17.773438 C 31.925781 17.585938 30.960938 17.136719 30.863281 17.136719 C 30.824219 17.136719 30.75 17.078125 30.695312 17.003906 C 30.601562 16.878906 29.933594 15.472656 29.867188 15.261719 C 29.855469 15.210938 29.734375 14.910156 29.597656 14.59375 C 29.46875 14.277344 29.277344 13.804688 29.171875 13.546875 C 28.839844 12.722656 28.867188 12.742188 28.402344 12.898438 C 28.078125 13.007812 27.308594 13.210938 27.035156 13.257812 C 26.945312 13.265625 26.890625 13.300781 26.878906 13.34375 C 26.867188 13.378906 26.910156 13.847656 26.964844 14.386719 C 27.027344 14.917969 27.089844 15.550781 27.113281 15.789062 C 27.15625 16.339844 27.222656 16.8125 27.253906 16.839844 C 27.269531 16.855469 27.476562 16.914062 27.710938 16.964844 C 28.222656 17.082031 29.671875 17.519531 30.199219 17.714844 C 30.636719 17.875 31.972656 18.585938 32.476562 18.921875 C 33.5 19.613281 33.96875 20.015625 34.699219 20.832031 C 35.367188 21.585938 36.03125 22.828125 36.210938 23.671875 C 36.320312 24.199219 36.253906 24.636719 36.0625 24.636719 C 36.007812 24.636719 35.679688 24.34375 34.992188 23.675781 C 33.554688 22.289062 32.199219 21.097656 31.761719 20.84375 C 31.667969 20.789062 31.332031 20.5625 31.011719 20.339844 C 30.695312 20.117188 30.316406 19.871094 30.167969 19.789062 C 30.027344 19.707031 29.878906 19.621094 29.851562 19.59375 C 29.753906 19.511719 28.496094 18.789062 28.144531 18.609375 C 27.960938 18.515625 27.628906 18.335938 27.414062 18.207031 C 27.195312 18.078125 26.71875 17.828125 26.351562 17.644531 C 25.984375 17.460938 25.675781 17.296875 25.660156 17.277344 C 25.605469 17.183594 25.464844 15.550781 25.429688 14.5 C 25.410156 14.011719 25.378906 13.589844 25.359375 13.570312 C 25.34375 13.550781 24.847656 13.519531 24.257812 13.5 C 23.195312 13.464844 22.585938 13.402344 21.714844 13.238281 C 21.5 13.195312 21.320312 13.171875 21.3125 13.175781 C 21.261719 13.222656 21.183594 13.609375 20.730469 15.917969 C 20.53125 16.933594 20.460938 17.136719 20.296875 17.136719 C 20.148438 17.136719 18.84375 17.8125 18.300781 18.167969 C 17.980469 18.378906 17.609375 18.609375 17.476562 18.6875 C 17.207031 18.832031 16.191406 19.625 15.796875 19.992188 C 14.808594 20.902344 13.960938 21.996094 13.230469 23.304688 C 12.765625 24.132812 12.160156 25.628906 12.265625 25.6875 C 12.289062 25.703125 12.5 25.734375 12.738281 25.757812 C 13.214844 25.808594 14.027344 26.003906 14.832031 26.261719 C 15.121094 26.355469 15.566406 26.492188 15.824219 26.570312 C 16.082031 26.644531 16.46875 26.765625 16.6875 26.839844 C 16.929688 26.921875 17.171875 26.976562 17.324219 26.984375 C 17.558594 26.996094 17.5625 26.996094 17.410156 26.957031 C 17.316406 26.9375 17.25 26.898438 17.25 26.867188 C 17.25 26.789062 17.3125 26.765625 17.398438 26.8125 C 17.5 26.863281 17.5 26.832031 17.367188 26.210938 C 17.203125 25.484375 17.195312 25.304688 17.269531 24.933594 C 17.390625 24.304688 17.738281 23.695312 18.230469 23.234375 C 18.636719 22.851562 18.917969 22.671875 19.34375 22.53125 C 19.699219 22.410156 19.71875 22.410156 20.363281 22.410156 C 20.988281 22.414062 21.035156 22.417969 21.355469 22.523438 C 21.832031 22.683594 22.25 22.96875 22.734375 23.46875 C 23.0625 23.8125 23.148438 23.929688 23.296875 24.230469 C 23.390625 24.421875 23.515625 24.738281 23.578125 24.933594 L 23.675781 25.28125 L 23.566406 25.386719 C 23.410156 25.523438 22.996094 25.679688 21.9375 25.992188 C 20.765625 26.339844 20.210938 26.480469 18.957031 26.734375 C 17.84375 26.960938 17.488281 27.066406 17.496094 27.164062 C 17.5 27.199219 17.484375 27.226562 17.460938 27.226562 C 17.382812 27.226562 16.855469 27.085938 16.632812 27.003906 C 16.507812 26.957031 15.992188 26.804688 15.488281 26.660156 C 14.980469 26.515625 14.492188 26.375 14.398438 26.347656 C 13.605469 26.109375 13.203125 26.015625 12.863281 25.984375 C 12.382812 25.933594 11.347656 25.96875 10.917969 26.046875 C 10.695312 26.089844 10.59375 26.097656 10.5625 26.066406 C 10.519531 26.019531 10.734375 25.375 10.898438 25.085938 C 10.945312 24.992188 11.0625 24.765625 11.152344 24.574219 C 11.242188 24.386719 11.386719 24.136719 11.46875 24.011719 C 11.550781 23.890625 11.710938 23.648438 11.832031 23.464844 C 12.371094 22.632812 13.371094 21.492188 14.203125 20.765625 C 14.722656 20.308594 15.476562 19.710938 15.789062 19.5 C 15.921875 19.410156 16.148438 19.246094 16.289062 19.136719 C 16.433594 19.027344 16.703125 18.839844 16.890625 18.722656 C 17.230469 18.515625 17.328125 18.449219 17.757812 18.160156 C 17.878906 18.078125 18.140625 17.921875 18.335938 17.8125 C 18.8125 17.550781 18.886719 17.480469 18.980469 17.15625 C 19.113281 16.679688 19.574219 15.179688 19.78125 14.550781 C 20.039062 13.753906 20.210938 13.140625 20.210938 13.007812 C 20.210938 12.914062 20.1875 12.894531 19.960938 12.8125 C 19.375 12.601562 19.359375 12.597656 19.296875 12.757812 Z M 23.664062 14.144531 C 23.664062 14.164062 23.695312 14.175781 23.738281 14.175781 C 23.777344 14.175781 23.824219 14.203125 23.835938 14.230469 C 23.855469 14.277344 23.871094 14.28125 23.910156 14.25 C 23.96875 14.199219 24.15625 14.214844 24.175781 14.277344 C 24.1875 14.300781 24.117188 14.378906 24.019531 14.445312 C 23.859375 14.558594 23.851562 14.574219 23.914062 14.617188 C 23.953125 14.644531 24.023438 14.660156 24.074219 14.65625 C 24.160156 14.644531 24.167969 14.65625 24.15625 14.773438 C 24.148438 14.847656 24.140625 14.914062 24.132812 14.921875 C 24.121094 14.929688 24.054688 14.898438 23.980469 14.855469 C 23.90625 14.808594 23.832031 14.78125 23.8125 14.792969 C 23.792969 14.804688 23.761719 14.917969 23.734375 15.042969 C 23.699219 15.214844 23.675781 15.261719 23.628906 15.253906 C 23.585938 15.246094 23.558594 15.179688 23.535156 15.027344 C 23.503906 14.816406 23.5 14.8125 23.378906 14.8125 C 23.210938 14.8125 23.179688 14.746094 23.300781 14.652344 C 23.398438 14.582031 23.398438 14.578125 23.34375 14.484375 L 23.285156 14.394531 L 23.417969 14.421875 L 23.558594 14.449219 L 23.53125 14.230469 C 23.503906 14.019531 23.503906 14.015625 23.582031 14.070312 C 23.625 14.097656 23.664062 14.128906 23.664062 14.144531 Z M 25.503906 17.4375 C 25.605469 17.492188 25.59375 17.636719 25.476562 17.753906 C 25.304688 17.921875 25.085938 17.867188 25.085938 17.65625 C 25.085938 17.578125 25.117188 17.53125 25.210938 17.476562 C 25.347656 17.390625 25.398438 17.386719 25.503906 17.4375 Z M 21.109375 18.511719 C 21.171875 18.5625 21.226562 18.636719 21.226562 18.675781 C 21.226562 18.78125 21.078125 18.9375 20.976562 18.9375 C 20.761719 18.9375 20.644531 18.597656 20.820312 18.472656 C 20.9375 18.390625 20.972656 18.398438 21.109375 18.511719 Z M 24.289062 20.722656 C 24.621094 20.835938 24.75 21.027344 24.75 21.421875 C 24.75 21.992188 24.316406 22.296875 23.769531 22.105469 C 23.578125 22.035156 23.488281 21.960938 23.398438 21.789062 C 23.25 21.488281 23.28125 21.019531 23.464844 20.835938 C 23.636719 20.664062 23.972656 20.617188 24.289062 20.722656 Z M 26.4375 23.210938 C 26.550781 23.332031 26.664062 23.546875 26.664062 23.640625 C 26.664062 23.761719 26.507812 24.003906 26.390625 24.078125 C 26.195312 24.199219 25.964844 24.089844 25.851562 23.824219 C 25.738281 23.558594 25.820312 23.328125 26.078125 23.171875 C 26.238281 23.074219 26.3125 23.082031 26.4375 23.210938 Z M 14.878906 23.390625 C 14.945312 23.476562 14.9375 23.539062 14.851562 23.625 C 14.730469 23.746094 14.601562 23.71875 14.515625 23.558594 C 14.460938 23.457031 14.492188 23.335938 14.578125 23.3125 C 14.679688 23.285156 14.828125 23.324219 14.878906 23.390625 Z M 16.300781 23.757812 C 16.394531 23.863281 16.445312 24.066406 16.410156 24.210938 C 16.394531 24.265625 16.335938 24.355469 16.273438 24.417969 C 16.1875 24.507812 16.136719 24.523438 15.992188 24.523438 C 15.746094 24.523438 15.636719 24.410156 15.636719 24.144531 C 15.636719 23.933594 15.707031 23.78125 15.859375 23.683594 C 15.988281 23.601562 16.195312 23.632812 16.300781 23.757812 Z M 29.679688 25.210938 C 30.238281 25.265625 30.996094 25.355469 31.367188 25.402344 C 32.964844 25.625 33.402344 25.65625 34.921875 25.675781 C 36.421875 25.695312 36.683594 25.683594 37.570312 25.535156 C 38.144531 25.441406 38.289062 25.441406 38.289062 25.535156 C 38.289062 25.613281 38.261719 25.621094 37.835938 25.6875 C 37.703125 25.707031 37.476562 25.75 37.332031 25.789062 C 37.101562 25.839844 36.777344 25.851562 34.738281 25.859375 L 32.410156 25.871094 L 31.949219 25.988281 C 31.320312 26.144531 30.835938 26.304688 30.429688 26.484375 C 30.246094 26.570312 29.933594 26.6875 29.738281 26.757812 C 29.542969 26.824219 29.097656 26.980469 28.742188 27.105469 C 27.914062 27.398438 27.683594 27.460938 26.851562 27.632812 C 25.6875 27.878906 25.140625 27.917969 23.175781 27.917969 C 21.34375 27.917969 21.078125 27.898438 19.820312 27.691406 C 18.96875 27.546875 18.1875 27.359375 18.238281 27.3125 C 18.246094 27.300781 18.355469 27.269531 18.476562 27.242188 C 18.597656 27.21875 18.894531 27.140625 19.144531 27.074219 C 19.390625 27.011719 19.664062 26.941406 19.753906 26.921875 C 19.84375 26.902344 19.933594 26.878906 19.953125 26.863281 C 19.972656 26.855469 20.179688 26.804688 20.410156 26.757812 C 20.929688 26.652344 21.675781 26.453125 22.367188 26.230469 C 24.226562 25.640625 26.117188 25.171875 26.851562 25.109375 C 27.335938 25.074219 28.738281 25.121094 29.679688 25.210938 Z M 38.417969 25.621094 C 38.386719 25.867188 38.324219 25.945312 38.324219 25.738281 C 38.324219 25.554688 38.359375 25.425781 38.40625 25.425781 C 38.429688 25.425781 38.433594 25.5 38.417969 25.621094 Z M 38.625 25.851562 C 38.625 25.921875 38.609375 25.996094 38.585938 26.007812 C 38.566406 26.019531 38.550781 25.96875 38.550781 25.878906 C 38.550781 25.792969 38.570312 25.726562 38.585938 25.726562 C 38.609375 25.726562 38.625 25.78125 38.625 25.851562 Z M 34.308594 27.914062 C 34.402344 28.027344 34.21875 28.179688 34.105469 28.085938 C 34.039062 28.03125 34.035156 27.96875 34.09375 27.90625 C 34.15625 27.847656 34.257812 27.851562 34.308594 27.914062 Z M 30.539062 28.140625 C 30.738281 28.257812 30.941406 28.484375 31.058594 28.722656 C 31.125 28.859375 31.144531 28.957031 31.144531 29.210938 C 31.144531 29.59375 31.054688 29.808594 30.789062 30.078125 C 30.582031 30.28125 30.34375 30.375 30.019531 30.375 C 29.652344 30.375 29.410156 30.285156 29.210938 30.074219 C 28.730469 29.570312 28.6875 28.996094 29.089844 28.414062 C 29.28125 28.136719 29.621094 28.003906 30.085938 28.027344 C 30.3125 28.039062 30.414062 28.066406 30.539062 28.140625 Z M 37.046875 29.234375 C 37.449219 29.355469 37.753906 29.765625 37.957031 30.46875 C 38.035156 30.746094 38.042969 30.832031 38.035156 31.613281 C 38.027344 32.875 37.878906 33.800781 37.492188 34.988281 C 37.226562 35.8125 36.492188 36.953125 35.308594 38.382812 C 34.800781 39 33.574219 40.183594 33.148438 40.472656 C 33.054688 40.539062 32.863281 40.683594 32.71875 40.800781 C 32.578125 40.917969 32.40625 41.046875 32.34375 41.089844 C 32.085938 41.265625 30.96875 41.882812 30.746094 41.972656 C 30.613281 42.027344 30.328125 42.144531 30.105469 42.238281 C 29.390625 42.539062 28.457031 42.820312 27.582031 42.996094 C 26.789062 43.15625 26.203125 43.238281 26.253906 43.183594 C 26.269531 43.171875 26.574219 43.074219 26.929688 42.972656 C 27.667969 42.757812 27.757812 42.71875 28.917969 42.152344 C 29.851562 41.699219 30.511719 41.292969 31.320312 40.667969 C 31.832031 40.273438 32.648438 39.53125 32.605469 39.496094 C 32.554688 39.441406 31.949219 39.800781 31.707031 40.027344 C 31.453125 40.265625 31.4375 40.273438 31.25 40.273438 C 31.03125 40.273438 31.007812 40.25 31.128906 40.140625 C 31.171875 40.101562 31.242188 40 31.285156 39.917969 C 31.328125 39.835938 31.464844 39.632812 31.59375 39.46875 C 31.722656 39.304688 32.21875 38.585938 32.703125 37.875 C 33.328125 36.945312 33.683594 36.386719 33.945312 35.886719 C 34.148438 35.503906 34.332031 35.132812 34.351562 35.0625 C 34.402344 34.882812 34.523438 33.789062 34.574219 33.019531 C 34.636719 32.113281 34.714844 31.390625 34.78125 31.117188 C 34.875 30.75 35.296875 29.910156 35.503906 29.691406 C 35.910156 29.257812 36.519531 29.078125 37.046875 29.234375 Z M 23.71875 30.414062 C 23.671875 30.488281 23.625 30.445312 23.625 30.328125 C 23.625 30.210938 23.625 30.210938 23.683594 30.292969 C 23.714844 30.335938 23.730469 30.394531 23.71875 30.414062 Z M 19.792969 30.488281 C 20.082031 30.664062 19.8125 30.988281 19.507812 30.828125 C 19.394531 30.769531 19.402344 30.644531 19.527344 30.515625 C 19.644531 30.394531 19.640625 30.394531 19.792969 30.488281 Z M 23.8125 30.523438 C 23.8125 30.542969 23.796875 30.5625 23.773438 30.5625 C 23.757812 30.5625 23.738281 30.542969 23.738281 30.523438 C 23.738281 30.503906 23.757812 30.488281 23.773438 30.488281 C 23.796875 30.488281 23.8125 30.503906 23.8125 30.523438 Z M 14.261719 30.753906 C 14.570312 30.910156 14.59375 31.140625 14.324219 31.324219 C 14.078125 31.496094 13.785156 31.257812 13.855469 30.9375 C 13.902344 30.726562 14.066406 30.65625 14.261719 30.753906 Z M 33.238281 31.578125 C 33.289062 31.605469 33.351562 31.671875 33.378906 31.734375 C 33.5 32.023438 33.113281 32.21875 32.886719 31.980469 C 32.675781 31.753906 32.949219 31.449219 33.238281 31.578125 Z M 16.851562 32.152344 C 17.035156 32.226562 17.136719 32.378906 17.136719 32.578125 C 17.136719 32.765625 17.097656 32.859375 16.957031 33.007812 C 16.773438 33.207031 16.449219 33.109375 16.289062 32.804688 C 16.183594 32.597656 16.320312 32.253906 16.546875 32.15625 C 16.699219 32.089844 16.703125 32.089844 16.851562 32.152344 Z M 21.496094 32.363281 C 21.765625 32.4375 22.011719 32.851562 22.011719 33.222656 C 22.007812 33.503906 21.792969 33.800781 21.5 33.925781 C 21.046875 34.113281 20.40625 33.816406 20.285156 33.367188 C 20.125 32.769531 20.472656 32.324219 21.09375 32.324219 C 21.234375 32.324219 21.417969 32.34375 21.496094 32.363281 Z M 30.847656 32.710938 C 31.277344 32.925781 31.390625 33.023438 31.652344 33.421875 C 31.921875 33.832031 31.964844 33.953125 31.941406 34.289062 C 31.890625 35.027344 31.375 35.835938 30.757812 36.140625 L 30.472656 36.28125 L 29.492188 36.28125 L 29.183594 36.117188 C 28.675781 35.851562 28.273438 35.339844 28.105469 34.746094 C 28.007812 34.410156 28.042969 33.90625 28.175781 33.636719 C 28.480469 33.046875 28.785156 32.777344 29.398438 32.578125 C 29.429688 32.566406 29.691406 32.554688 29.984375 32.554688 L 30.511719 32.550781 Z M 13.386719 33.1875 C 13.386719 33.242188 13.359375 33.261719 13.292969 33.261719 C 13.226562 33.261719 13.199219 33.242188 13.199219 33.1875 C 13.199219 33.132812 13.226562 33.113281 13.292969 33.113281 C 13.359375 33.113281 13.386719 33.132812 13.386719 33.1875 Z M 14.441406 34.738281 C 14.628906 34.867188 14.722656 35.070312 14.667969 35.246094 C 14.613281 35.433594 14.375 35.660156 14.203125 35.6875 C 14.019531 35.714844 13.828125 35.597656 13.703125 35.378906 C 13.585938 35.179688 13.601562 35.015625 13.75 34.832031 C 13.949219 34.597656 14.179688 34.566406 14.441406 34.738281 Z M 15.296875 36.996094 C 15.386719 37.070312 15.414062 37.125 15.414062 37.222656 C 15.414062 37.375 15.304688 37.5 15.167969 37.5 C 14.929688 37.5 14.828125 37.132812 15.023438 36.980469 C 15.148438 36.878906 15.15625 36.882812 15.296875 36.996094 Z M 22.21875 37.503906 C 22.710938 37.632812 22.898438 37.738281 23.273438 38.117188 L 23.617188 38.464844 L 23.734375 38.84375 C 23.855469 39.234375 23.886719 39.609375 23.816406 39.796875 C 23.789062 39.871094 23.796875 39.929688 23.859375 40.050781 L 23.9375 40.207031 L 23.835938 40.304688 L 23.734375 40.40625 L 23.714844 40.320312 C 23.695312 40.265625 23.664062 40.238281 23.597656 40.238281 C 23.429688 40.238281 23.273438 40.347656 23.15625 40.542969 C 22.921875 40.941406 22.550781 41.171875 22.019531 41.25 C 21.582031 41.3125 21.253906 41.296875 20.933594 41.195312 C 20.609375 41.09375 20.175781 40.832031 20.175781 40.746094 C 20.175781 40.714844 20.21875 40.664062 20.28125 40.632812 C 20.378906 40.574219 20.378906 40.574219 20.191406 40.597656 C 20.007812 40.621094 19.996094 40.617188 19.902344 40.496094 C 19.847656 40.425781 19.765625 40.28125 19.71875 40.179688 C 19.640625 40.007812 19.632812 39.941406 19.632812 39.320312 C 19.632812 38.535156 19.628906 38.542969 20.011719 38.136719 C 20.378906 37.746094 20.609375 37.621094 21.1875 37.480469 C 21.503906 37.40625 21.886719 37.414062 22.21875 37.503906 Z M 28.441406 38.441406 C 28.515625 38.5 28.539062 38.550781 28.539062 38.664062 C 28.539062 38.855469 28.445312 38.960938 28.25 38.988281 C 28.117188 39.007812 28.078125 38.996094 27.996094 38.914062 C 27.917969 38.835938 27.898438 38.777344 27.898438 38.632812 C 27.898438 38.535156 27.917969 38.433594 27.945312 38.40625 C 28.019531 38.332031 28.328125 38.351562 28.441406 38.441406 Z M 23.570312 40.425781 C 23.570312 40.492188 23.445312 40.523438 23.390625 40.464844 C 23.355469 40.433594 23.359375 40.414062 23.398438 40.386719 C 23.480469 40.335938 23.570312 40.359375 23.570312 40.425781 Z M 17.378906 40.855469 C 17.523438 41.007812 17.476562 41.175781 17.285156 41.175781 C 17.136719 41.175781 17.03125 41.019531 17.09375 40.894531 C 17.140625 40.785156 17.289062 40.765625 17.378906 40.855469 Z M 17.378906 40.855469 "/>
<path style=" stroke:none;fill-rule:nonzero;fill:rgb(0%,0%,0%);fill-opacity:1;" d="M 29.113281 33.050781 C 29.074219 33.226562 29.207031 33.363281 29.316406 33.253906 C 29.382812 33.191406 29.375 33.097656 29.296875 33.027344 C 29.199219 32.941406 29.140625 32.949219 29.113281 33.050781 Z M 29.113281 33.050781 "/>
<path style=" stroke:none;fill-rule:nonzero;fill:rgb(0%,0%,0%);fill-opacity:1;" d="M 28.539062 34.90625 C 28.539062 34.972656 28.777344 35.296875 28.90625 35.398438 C 29.128906 35.582031 29.128906 35.527344 28.90625 35.3125 C 28.789062 35.207031 28.667969 35.0625 28.636719 34.996094 C 28.574219 34.878906 28.539062 34.84375 28.539062 34.90625 Z M 28.539062 34.90625 "/>
<path style=" stroke:none;fill-rule:nonzero;fill:rgb(0%,0%,0%);fill-opacity:1;" d="M 20.304688 39.789062 C 20.296875 39.804688 20.296875 39.824219 20.320312 39.824219 C 20.339844 39.824219 20.371094 39.804688 20.382812 39.789062 C 20.390625 39.765625 20.390625 39.75 20.367188 39.75 C 20.347656 39.75 20.316406 39.765625 20.304688 39.789062 Z M 20.304688 39.789062 "/>
<path style=" stroke:none;fill-rule:nonzero;fill:rgb(0%,0%,0%);fill-opacity:1;" d="M 19.875 40.070312 C 19.847656 40.101562 19.84375 40.125 19.867188 40.125 C 19.886719 40.125 19.914062 40.097656 19.925781 40.070312 C 19.9375 40.039062 19.941406 40.011719 19.933594 40.011719 C 19.925781 40.011719 19.902344 40.039062 19.875 40.070312 Z M 19.875 40.070312 "/>
<path style=" stroke:none;fill-rule:nonzero;fill:rgb(0%,0%,0%);fill-opacity:1;" d="M 20.9375 40.242188 C 20.910156 40.265625 20.792969 40.34375 20.671875 40.410156 C 20.554688 40.476562 20.480469 40.539062 20.503906 40.539062 C 20.570312 40.539062 21.039062 40.265625 21.039062 40.230469 C 21.039062 40.183594 20.984375 40.191406 20.9375 40.242188 Z M 20.9375 40.242188 "/>
<path style=" stroke:none;fill-rule:nonzero;fill:rgb(0%,0%,0%);fill-opacity:1;" d="M 20.046875 40.332031 C 20.0625 40.363281 20.089844 40.382812 20.109375 40.378906 C 20.164062 40.359375 20.148438 40.292969 20.085938 40.28125 C 20.042969 40.273438 20.03125 40.289062 20.046875 40.332031 Z M 20.046875 40.332031 "/>
<path style=" stroke:none;fill-rule:nonzero;fill:rgb(0%,0%,0%);fill-opacity:1;" d="M 17.203125 40.9375 C 17.1875 40.949219 17.175781 40.996094 17.175781 41.03125 C 17.175781 41.136719 17.300781 41.105469 17.316406 40.996094 C 17.328125 40.917969 17.257812 40.878906 17.203125 40.9375 Z M 17.203125 40.9375 "/>
<path style=" stroke:none;fill-rule:nonzero;fill:rgb(0%,0%,0%);fill-opacity:1;" d="M 18.710938 24 C 18.664062 24.089844 18.695312 24.226562 18.761719 24.226562 C 18.859375 24.226562 18.980469 24.105469 18.96875 24.027344 C 18.953125 23.910156 18.769531 23.890625 18.710938 24 Z M 18.710938 24 "/>
<path style=" stroke:none;fill-rule:nonzero;fill:rgb(0%,0%,0%);fill-opacity:1;" d="M 18.425781 24.382812 C 18.410156 24.414062 18.421875 24.417969 18.464844 24.402344 C 18.515625 24.378906 18.527344 24.390625 18.511719 24.433594 C 18.5 24.464844 18.488281 24.503906 18.488281 24.511719 C 18.488281 24.515625 18.453125 24.523438 18.414062 24.523438 C 18.328125 24.523438 18.316406 24.5625 18.382812 24.628906 C 18.453125 24.703125 18.628906 24.6875 18.671875 24.605469 C 18.742188 24.472656 18.507812 24.253906 18.425781 24.382812 Z M 18.425781 24.382812 "/>
<path style=" stroke:none;fill-rule:nonzero;fill:rgb(0%,0%,0%);fill-opacity:1;" d="M 18.371094 25.960938 C 18.335938 25.988281 18.292969 26.039062 18.269531 26.085938 C 18.175781 26.265625 18.496094 26.582031 18.773438 26.585938 C 18.886719 26.585938 18.976562 26.53125 18.976562 26.460938 C 18.976562 26.4375 18.957031 26.441406 18.929688 26.46875 C 18.851562 26.546875 18.683594 26.519531 18.617188 26.421875 C 18.53125 26.292969 18.480469 26.09375 18.523438 26.046875 C 18.546875 26.023438 18.546875 25.996094 18.519531 25.960938 C 18.46875 25.902344 18.449219 25.902344 18.371094 25.960938 Z M 18.371094 25.960938 "/>
<path style=" stroke:none;fill-rule:nonzero;fill:rgb(0%,0%,0%);fill-opacity:1;" d="M 17.550781 26.273438 C 17.550781 26.300781 17.570312 26.316406 17.585938 26.304688 C 17.609375 26.296875 17.625 26.269531 17.625 26.246094 C 17.625 26.226562 17.609375 26.210938 17.585938 26.210938 C 17.570312 26.210938 17.550781 26.238281 17.550781 26.273438 Z M 17.550781 26.273438 "/>
<path style=" stroke:none;fill-rule:nonzero;fill:rgb(0%,0%,0%);fill-opacity:1;" d="M 17.625 26.4375 C 17.699219 26.484375 17.785156 26.484375 17.757812 26.4375 C 17.746094 26.414062 17.695312 26.398438 17.652344 26.398438 C 17.582031 26.398438 17.578125 26.40625 17.625 26.4375 Z M 17.625 26.4375 "/>
<path style=" stroke:none;fill-rule:nonzero;fill:rgb(0%,0%,0%);fill-opacity:1;" d="M 17.558594 26.628906 C 17.570312 26.714844 17.757812 26.878906 17.792969 26.84375 C 17.808594 26.832031 17.769531 26.773438 17.71875 26.722656 C 17.667969 26.671875 17.632812 26.605469 17.644531 26.585938 C 17.65625 26.566406 17.640625 26.550781 17.605469 26.550781 C 17.566406 26.550781 17.550781 26.578125 17.558594 26.628906 Z M 17.558594 26.628906 "/>
</g>
</svg>
