<?xml version="1.0" encoding="UTF-8"?>
<svg xmlns="http://www.w3.org/2000/svg" xmlns:xlink="http://www.w3.org/1999/xlink" width="24px" height="24px" viewBox="0 0 24 24" version="1.1">
<g id="surface1">
<path style=" stroke:none;fill-rule:nonzero;fill:rgb(0%,0%,0%);fill-opacity:1;" d="M 11.835938 0.0195312 C 11.8125 0.03125 11.773438 0.0742188 11.753906 0.121094 C 11.710938 0.21875 11.722656 0.304688 11.796875 0.414062 C 11.867188 0.515625 11.933594 0.554688 12.035156 0.550781 C 12.214844 0.546875 12.371094 0.410156 12.386719 0.234375 C 12.398438 0.15625 12.394531 0.144531 12.324219 0.0742188 L 12.246094 0 L 12.0625 0 C 11.960938 0 11.859375 0.0078125 11.835938 0.0195312 Z M 11.835938 0.0195312 "/>
<path style=" stroke:none;fill-rule:nonzero;fill:rgb(0%,0%,0%);fill-opacity:1;" d="M 9.683594 0.765625 C 9.453125 0.84375 9.277344 1 9.179688 1.199219 C 9.125 1.316406 9.121094 1.332031 9.121094 1.578125 L 9.121094 1.832031 L 9.203125 1.992188 C 9.324219 2.238281 9.5 2.367188 9.808594 2.429688 C 9.980469 2.464844 10.125 2.445312 10.320312 2.351562 C 10.417969 2.308594 10.632812 2.09375 10.683594 1.992188 C 10.78125 1.804688 10.777344 1.363281 10.675781 1.175781 C 10.589844 1.019531 10.328125 0.8125 10.152344 0.757812 C 10.03125 0.722656 9.800781 0.726562 9.683594 0.765625 Z M 9.683594 0.765625 "/>
<path style=" stroke:none;fill-rule:nonzero;fill:rgb(0%,0%,0%);fill-opacity:1;" d="M 11.40625 0.984375 C 11.292969 1.03125 11.246094 1.171875 11.292969 1.332031 C 11.324219 1.433594 11.398438 1.480469 11.542969 1.480469 C 11.699219 1.480469 11.792969 1.378906 11.792969 1.210938 C 11.792969 1.03125 11.582031 0.90625 11.40625 0.984375 Z M 11.40625 0.984375 "/>
<path style=" stroke:none;fill-rule:nonzero;fill:rgb(0%,0%,0%);fill-opacity:1;" d="M 12.867188 1.453125 C 12.757812 1.5 12.71875 1.6875 12.789062 1.820312 C 12.839844 1.917969 13.035156 1.941406 13.148438 1.863281 C 13.273438 1.78125 13.292969 1.640625 13.199219 1.53125 C 13.113281 1.433594 12.984375 1.402344 12.867188 1.453125 Z M 12.867188 1.453125 "/>
<path style=" stroke:none;fill-rule:nonzero;fill:rgb(0%,0%,0%);fill-opacity:1;" d="M 12.746094 2.300781 C 12.703125 2.347656 12.703125 2.433594 12.75 2.457031 C 12.804688 2.484375 12.894531 2.480469 12.9375 2.4375 C 12.988281 2.386719 12.984375 2.355469 12.925781 2.308594 C 12.863281 2.257812 12.785156 2.257812 12.746094 2.300781 Z M 12.746094 2.300781 "/>
<path style=" stroke:none;fill-rule:nonzero;fill:rgb(0%,0%,0%);fill-opacity:1;" d="M 11.128906 3.441406 C 10.6875 3.5 10.46875 3.578125 10.375 3.714844 C 10.308594 3.8125 10.3125 3.84375 10.414062 4.1875 C 10.503906 4.484375 10.519531 4.648438 10.480469 4.835938 C 10.433594 5.050781 10.433594 5.054688 10.5 5.125 C 10.554688 5.179688 10.59375 5.199219 10.761719 5.238281 C 11.25 5.355469 11.421875 5.371094 12.1875 5.371094 C 12.878906 5.371094 12.894531 5.371094 13.148438 5.320312 C 13.457031 5.257812 13.636719 5.203125 13.683594 5.152344 C 13.710938 5.117188 13.71875 5.058594 13.730469 4.585938 C 13.738281 4.097656 13.742188 4.050781 13.78125 3.980469 C 13.800781 3.9375 13.820312 3.867188 13.820312 3.824219 C 13.820312 3.757812 13.808594 3.738281 13.726562 3.65625 C 13.621094 3.550781 13.527344 3.5 13.363281 3.457031 C 13.191406 3.414062 11.429688 3.402344 11.128906 3.441406 Z M 13.015625 3.644531 C 13.390625 3.675781 13.460938 3.699219 13.460938 3.785156 C 13.460938 3.820312 13.441406 3.855469 13.394531 3.902344 C 13.277344 4.015625 13.226562 4.03125 12.804688 4.109375 C 12.597656 4.148438 12.515625 4.152344 12.007812 4.152344 C 11.464844 4.152344 11.4375 4.152344 11.203125 4.101562 C 10.9375 4.042969 10.742188 3.964844 10.691406 3.890625 C 10.664062 3.84375 10.667969 3.839844 10.699219 3.804688 C 10.773438 3.722656 10.917969 3.671875 11.183594 3.625 C 11.382812 3.59375 12.550781 3.605469 13.015625 3.644531 Z M 13.015625 3.644531 "/>
<path style=" stroke:none;fill-rule:nonzero;fill:rgb(0%,0%,0%);fill-opacity:1;" d="M 12.417969 3.667969 C 12.433594 3.671875 12.460938 3.671875 12.472656 3.667969 C 12.484375 3.664062 12.472656 3.660156 12.441406 3.660156 C 12.410156 3.660156 12.398438 3.664062 12.417969 3.667969 Z M 12.417969 3.667969 "/>
<path style=" stroke:none;fill-rule:nonzero;fill:rgb(0%,0%,0%);fill-opacity:1;" d="M 12.84375 3.882812 C 12.40625 3.910156 11.769531 3.957031 11.707031 3.96875 C 11.636719 3.980469 11.628906 3.996094 11.675781 4.042969 C 11.707031 4.070312 11.753906 4.074219 12.214844 4.0625 C 12.835938 4.050781 13.273438 3.996094 13.332031 3.925781 C 13.34375 3.910156 13.351562 3.894531 13.347656 3.890625 C 13.328125 3.871094 13.089844 3.867188 12.84375 3.882812 Z M 12.84375 3.882812 "/>
<path style=" stroke:none;fill-rule:nonzero;fill:rgb(0%,0%,0%);fill-opacity:1;" d="M 10.132812 4.390625 C 10.082031 4.40625 9.988281 4.441406 9.929688 4.457031 C 9.722656 4.511719 9.433594 4.632812 9.324219 4.707031 C 9.261719 4.746094 9.148438 4.84375 9.070312 4.921875 C 8.953125 5.039062 8.917969 5.082031 8.898438 5.160156 C 8.859375 5.289062 8.859375 5.496094 8.898438 5.574219 C 8.992188 5.753906 9.265625 5.988281 9.53125 6.113281 C 9.757812 6.21875 10.265625 6.382812 10.539062 6.4375 C 11.121094 6.558594 11.390625 6.585938 11.988281 6.597656 C 13.296875 6.613281 13.820312 6.519531 14.699219 6.097656 C 14.917969 5.992188 14.945312 5.972656 15.105469 5.808594 C 15.199219 5.714844 15.285156 5.613281 15.300781 5.589844 C 15.328125 5.53125 15.328125 5.273438 15.296875 5.171875 C 15.257812 5.035156 15.003906 4.792969 14.746094 4.644531 C 14.585938 4.550781 14.019531 4.378906 13.917969 4.390625 L 13.867188 4.398438 L 13.855469 4.753906 C 13.847656 4.992188 13.835938 5.125 13.820312 5.160156 C 13.746094 5.308594 13.332031 5.445312 12.757812 5.511719 C 12.65625 5.523438 12.546875 5.539062 12.515625 5.550781 C 12.367188 5.597656 11.992188 5.625 11.511719 5.625 C 11.015625 5.625 10.859375 5.613281 10.566406 5.558594 C 10.40625 5.527344 10.199219 5.445312 10.199219 5.414062 C 10.199219 5.402344 10.222656 5.335938 10.25 5.261719 C 10.308594 5.101562 10.425781 4.609375 10.425781 4.523438 C 10.425781 4.492188 10.417969 4.460938 10.40625 4.453125 C 10.382812 4.4375 10.332031 4.542969 10.332031 4.609375 C 10.332031 4.640625 10.324219 4.671875 10.3125 4.679688 C 10.300781 4.6875 10.292969 4.628906 10.292969 4.519531 C 10.292969 4.324219 10.292969 4.324219 10.132812 4.390625 Z M 10.132812 4.390625 "/>
<path style=" stroke:none;fill-rule:nonzero;fill:rgb(0%,0%,0%);fill-opacity:1;" d="M 10.34375 5.160156 C 10.3125 5.203125 10.257812 5.351562 10.257812 5.386719 C 10.257812 5.441406 10.359375 5.273438 10.394531 5.160156 C 10.414062 5.105469 10.378906 5.105469 10.34375 5.160156 Z M 10.34375 5.160156 "/>
<path style=" stroke:none;fill-rule:nonzero;fill:rgb(0%,0%,0%);fill-opacity:1;" d="M 9.648438 6.378906 C 9.632812 6.414062 9.578125 6.542969 9.527344 6.667969 C 9.472656 6.796875 9.386719 7.007812 9.335938 7.136719 C 9.28125 7.269531 9.175781 7.53125 9.09375 7.714844 C 9.011719 7.902344 8.90625 8.144531 8.859375 8.257812 C 8.738281 8.542969 8.617188 8.761719 8.546875 8.820312 C 8.511719 8.851562 8.417969 8.914062 8.335938 8.96875 C 7.851562 9.285156 7.5 9.554688 7.179688 9.851562 C 6.875 10.136719 6.367188 10.671875 6.257812 10.816406 C 6.214844 10.878906 6.125 11.003906 6.054688 11.089844 C 5.886719 11.3125 5.675781 11.644531 5.597656 11.808594 C 5.558594 11.886719 5.503906 11.984375 5.476562 12.027344 C 5.308594 12.273438 4.964844 13.199219 4.847656 13.714844 C 4.726562 14.265625 4.714844 14.398438 4.71875 15.214844 C 4.71875 15.914062 4.722656 15.960938 4.769531 16.277344 C 4.796875 16.460938 4.839844 16.6875 4.867188 16.777344 C 4.894531 16.867188 4.941406 17.023438 4.96875 17.128906 C 5.09375 17.566406 5.199219 17.847656 5.355469 18.167969 C 5.421875 18.308594 5.488281 18.433594 5.5 18.449219 C 5.515625 18.464844 5.542969 18.523438 5.566406 18.578125 C 5.617188 18.703125 5.957031 19.21875 6.191406 19.523438 C 6.5 19.921875 7.042969 20.476562 7.460938 20.816406 C 7.625 20.949219 8.09375 21.28125 8.242188 21.367188 C 8.925781 21.769531 9.511719 22.035156 9.976562 22.152344 C 10.042969 22.171875 10.160156 22.203125 10.238281 22.226562 C 10.492188 22.308594 11.039062 22.402344 11.492188 22.445312 C 11.855469 22.476562 12.667969 22.472656 13.011719 22.4375 C 13.464844 22.386719 13.9375 22.3125 14.125 22.265625 C 14.757812 22.09375 14.910156 22.042969 15.316406 21.871094 C 15.609375 21.75 15.894531 21.609375 16.035156 21.515625 C 16.089844 21.480469 16.167969 21.441406 16.203125 21.425781 C 16.289062 21.390625 16.554688 21.214844 16.691406 21.105469 C 16.746094 21.0625 16.832031 21 16.886719 20.972656 C 16.941406 20.941406 17.078125 20.839844 17.1875 20.746094 C 17.464844 20.515625 18.152344 19.824219 18.300781 19.632812 C 18.367188 19.542969 18.488281 19.382812 18.570312 19.269531 C 18.65625 19.160156 18.738281 19.046875 18.75 19.019531 C 18.765625 18.988281 18.792969 18.9375 18.816406 18.910156 C 18.984375 18.660156 19.394531 17.859375 19.476562 17.605469 C 19.535156 17.429688 19.679688 16.917969 19.742188 16.667969 C 19.941406 15.882812 19.9375 14.496094 19.734375 13.6875 C 19.546875 12.933594 19.386719 12.515625 19.082031 11.945312 C 18.808594 11.441406 18.605469 11.140625 18.207031 10.648438 C 17.996094 10.390625 17.484375 9.867188 17.3125 9.738281 C 17.238281 9.683594 17.171875 9.628906 17.164062 9.617188 C 17.125 9.554688 16.546875 9.152344 16.117188 8.886719 C 15.964844 8.792969 15.480469 8.570312 15.429688 8.570312 C 15.414062 8.570312 15.375 8.539062 15.347656 8.5 C 15.300781 8.4375 14.964844 7.734375 14.933594 7.632812 C 14.925781 7.605469 14.867188 7.453125 14.800781 7.296875 C 14.734375 7.136719 14.636719 6.902344 14.585938 6.773438 C 14.421875 6.363281 14.433594 6.371094 14.203125 6.449219 C 14.039062 6.503906 13.652344 6.605469 13.515625 6.628906 C 13.472656 6.632812 13.445312 6.652344 13.441406 6.671875 C 13.433594 6.691406 13.453125 6.925781 13.484375 7.191406 C 13.511719 7.457031 13.546875 7.777344 13.554688 7.894531 C 13.578125 8.167969 13.609375 8.40625 13.628906 8.421875 C 13.636719 8.429688 13.738281 8.457031 13.855469 8.484375 C 14.109375 8.539062 14.835938 8.761719 15.097656 8.859375 C 15.320312 8.9375 15.984375 9.292969 16.238281 9.460938 C 16.75 9.804688 16.984375 10.007812 17.347656 10.414062 C 17.683594 10.792969 18.015625 11.414062 18.105469 11.835938 C 18.160156 12.097656 18.128906 12.320312 18.03125 12.320312 C 18.003906 12.320312 17.839844 12.171875 17.496094 11.839844 C 16.777344 11.144531 16.097656 10.546875 15.882812 10.421875 C 15.835938 10.394531 15.664062 10.28125 15.507812 10.171875 C 15.347656 10.058594 15.15625 9.9375 15.085938 9.894531 C 15.011719 9.851562 14.941406 9.808594 14.925781 9.796875 C 14.875 9.753906 14.25 9.394531 14.070312 9.304688 C 13.980469 9.257812 13.816406 9.167969 13.707031 9.101562 C 13.597656 9.039062 13.359375 8.914062 13.175781 8.820312 C 12.992188 8.730469 12.839844 8.648438 12.832031 8.636719 C 12.800781 8.589844 12.734375 7.777344 12.714844 7.25 C 12.703125 7.003906 12.691406 6.796875 12.679688 6.785156 C 12.671875 6.777344 12.421875 6.757812 12.128906 6.75 C 11.597656 6.734375 11.292969 6.703125 10.859375 6.617188 C 10.75 6.597656 10.660156 6.585938 10.65625 6.589844 C 10.632812 6.609375 10.59375 6.804688 10.363281 7.960938 C 10.265625 8.46875 10.230469 8.570312 10.148438 8.570312 C 10.074219 8.570312 9.421875 8.90625 9.148438 9.085938 C 8.992188 9.1875 8.804688 9.304688 8.738281 9.34375 C 8.605469 9.417969 8.097656 9.8125 7.898438 9.996094 C 7.40625 10.453125 6.980469 11 6.613281 11.652344 C 6.382812 12.066406 6.082031 12.8125 6.132812 12.84375 C 6.144531 12.851562 6.25 12.867188 6.371094 12.878906 C 6.609375 12.902344 7.015625 13 7.414062 13.128906 C 7.558594 13.175781 7.78125 13.246094 7.914062 13.285156 C 8.042969 13.320312 8.234375 13.382812 8.34375 13.417969 C 8.464844 13.460938 8.585938 13.488281 8.664062 13.492188 C 8.777344 13.5 8.78125 13.5 8.707031 13.480469 C 8.660156 13.46875 8.625 13.449219 8.625 13.433594 C 8.625 13.394531 8.65625 13.382812 8.699219 13.40625 C 8.75 13.433594 8.75 13.414062 8.683594 13.105469 C 8.601562 12.742188 8.597656 12.652344 8.632812 12.46875 C 8.695312 12.152344 8.867188 11.847656 9.113281 11.617188 C 9.320312 11.425781 9.460938 11.335938 9.671875 11.265625 C 9.847656 11.203125 9.859375 11.203125 10.179688 11.203125 C 10.496094 11.207031 10.515625 11.207031 10.679688 11.261719 C 10.917969 11.34375 11.125 11.484375 11.367188 11.734375 C 11.53125 11.90625 11.574219 11.964844 11.648438 12.113281 C 11.695312 12.210938 11.757812 12.371094 11.789062 12.46875 L 11.839844 12.640625 L 11.78125 12.695312 C 11.707031 12.761719 11.496094 12.839844 10.96875 12.996094 C 10.382812 13.171875 10.105469 13.238281 9.476562 13.367188 C 8.921875 13.480469 8.746094 13.535156 8.75 13.582031 C 8.75 13.597656 8.742188 13.613281 8.730469 13.613281 C 8.691406 13.613281 8.429688 13.542969 8.316406 13.5 C 8.253906 13.480469 7.996094 13.402344 7.742188 13.328125 C 7.492188 13.257812 7.246094 13.1875 7.199219 13.171875 C 6.800781 13.054688 6.601562 13.007812 6.429688 12.992188 C 6.191406 12.96875 5.671875 12.984375 5.457031 13.023438 C 5.347656 13.042969 5.296875 13.046875 5.28125 13.03125 C 5.257812 13.011719 5.367188 12.6875 5.449219 12.542969 C 5.472656 12.496094 5.53125 12.382812 5.578125 12.285156 C 5.621094 12.191406 5.691406 12.066406 5.734375 12.003906 C 5.773438 11.945312 5.855469 11.824219 5.914062 11.730469 C 6.1875 11.316406 6.6875 10.746094 7.101562 10.382812 C 7.359375 10.15625 7.738281 9.855469 7.894531 9.75 C 7.960938 9.703125 8.074219 9.621094 8.144531 9.566406 C 8.214844 9.515625 8.351562 9.421875 8.445312 9.363281 C 8.617188 9.257812 8.664062 9.226562 8.878906 9.082031 C 8.941406 9.039062 9.070312 8.960938 9.167969 8.90625 C 9.40625 8.773438 9.441406 8.738281 9.488281 8.578125 C 9.558594 8.339844 9.789062 7.589844 9.890625 7.273438 C 10.019531 6.878906 10.105469 6.570312 10.105469 6.503906 C 10.105469 6.457031 10.09375 6.449219 9.980469 6.40625 C 9.6875 6.300781 9.679688 6.296875 9.648438 6.378906 Z M 11.832031 7.074219 C 11.832031 7.082031 11.847656 7.085938 11.867188 7.085938 C 11.890625 7.085938 11.910156 7.101562 11.917969 7.117188 C 11.925781 7.136719 11.9375 7.140625 11.953125 7.125 C 11.984375 7.097656 12.078125 7.109375 12.089844 7.136719 C 12.09375 7.152344 12.058594 7.1875 12.007812 7.222656 C 11.929688 7.277344 11.925781 7.285156 11.957031 7.308594 C 11.976562 7.320312 12.011719 7.328125 12.039062 7.328125 C 12.082031 7.320312 12.085938 7.328125 12.078125 7.386719 C 12.074219 7.421875 12.070312 7.457031 12.066406 7.460938 C 12.058594 7.464844 12.027344 7.449219 11.992188 7.425781 C 11.953125 7.40625 11.914062 7.390625 11.90625 7.398438 C 11.898438 7.402344 11.878906 7.457031 11.867188 7.519531 C 11.851562 7.605469 11.839844 7.632812 11.8125 7.628906 C 11.792969 7.625 11.777344 7.589844 11.765625 7.511719 C 11.753906 7.40625 11.75 7.40625 11.6875 7.40625 C 11.605469 7.40625 11.589844 7.371094 11.652344 7.324219 C 11.699219 7.292969 11.699219 7.289062 11.671875 7.242188 L 11.640625 7.199219 L 11.710938 7.210938 L 11.777344 7.222656 L 11.765625 7.117188 C 11.753906 7.011719 11.753906 7.007812 11.792969 7.035156 C 11.8125 7.046875 11.832031 7.066406 11.832031 7.074219 Z M 12.75 8.71875 C 12.800781 8.746094 12.796875 8.816406 12.738281 8.875 C 12.652344 8.960938 12.542969 8.933594 12.542969 8.828125 C 12.542969 8.789062 12.558594 8.765625 12.605469 8.738281 C 12.671875 8.695312 12.699219 8.691406 12.75 8.71875 Z M 10.554688 9.253906 C 10.585938 9.28125 10.613281 9.320312 10.613281 9.335938 C 10.613281 9.390625 10.539062 9.46875 10.488281 9.46875 C 10.378906 9.46875 10.320312 9.296875 10.410156 9.234375 C 10.46875 9.195312 10.488281 9.199219 10.554688 9.253906 Z M 12.144531 10.359375 C 12.3125 10.417969 12.375 10.511719 12.375 10.710938 C 12.375 10.996094 12.15625 11.148438 11.886719 11.054688 C 11.789062 11.015625 11.746094 10.980469 11.699219 10.894531 C 11.625 10.742188 11.640625 10.507812 11.730469 10.417969 C 11.816406 10.332031 11.988281 10.308594 12.144531 10.359375 Z M 13.21875 11.605469 C 13.273438 11.667969 13.332031 11.773438 13.332031 11.820312 C 13.332031 11.878906 13.253906 12 13.195312 12.039062 C 13.097656 12.097656 12.984375 12.046875 12.925781 11.910156 C 12.871094 11.777344 12.910156 11.664062 13.039062 11.585938 C 13.121094 11.535156 13.15625 11.539062 13.21875 11.605469 Z M 7.441406 11.695312 C 7.472656 11.738281 7.46875 11.769531 7.425781 11.8125 C 7.363281 11.871094 7.300781 11.859375 7.257812 11.777344 C 7.230469 11.726562 7.246094 11.667969 7.289062 11.65625 C 7.339844 11.640625 7.414062 11.664062 7.441406 11.695312 Z M 8.152344 11.878906 C 8.199219 11.933594 8.222656 12.035156 8.203125 12.105469 C 8.199219 12.132812 8.167969 12.179688 8.136719 12.207031 C 8.09375 12.253906 8.066406 12.261719 7.996094 12.261719 C 7.875 12.261719 7.820312 12.203125 7.820312 12.074219 C 7.820312 11.964844 7.855469 11.890625 7.929688 11.84375 C 7.996094 11.800781 8.097656 11.816406 8.152344 11.878906 Z M 14.839844 12.605469 C 15.121094 12.632812 15.5 12.675781 15.683594 12.703125 C 16.484375 12.8125 16.699219 12.828125 17.460938 12.839844 C 18.210938 12.847656 18.339844 12.84375 18.785156 12.765625 C 19.074219 12.71875 19.144531 12.71875 19.144531 12.765625 C 19.144531 12.804688 19.128906 12.808594 18.917969 12.84375 C 18.851562 12.851562 18.738281 12.875 18.664062 12.894531 C 18.550781 12.921875 18.386719 12.925781 17.371094 12.929688 L 16.207031 12.9375 L 15.976562 12.992188 C 15.660156 13.074219 15.417969 13.152344 15.214844 13.242188 C 15.125 13.285156 14.964844 13.34375 14.867188 13.378906 C 14.769531 13.410156 14.546875 13.492188 14.371094 13.550781 C 13.957031 13.699219 13.839844 13.730469 13.425781 13.816406 C 12.84375 13.9375 12.570312 13.960938 11.585938 13.960938 C 10.671875 13.960938 10.539062 13.949219 9.910156 13.84375 C 9.484375 13.773438 9.09375 13.679688 9.121094 13.65625 C 9.125 13.648438 9.179688 13.636719 9.238281 13.621094 C 9.296875 13.609375 9.449219 13.570312 9.570312 13.539062 C 9.695312 13.503906 9.832031 13.46875 9.878906 13.460938 C 9.921875 13.453125 9.96875 13.441406 9.976562 13.433594 C 9.984375 13.425781 10.089844 13.402344 10.207031 13.378906 C 10.464844 13.324219 10.835938 13.226562 11.183594 13.117188 C 12.113281 12.820312 13.058594 12.585938 13.425781 12.554688 C 13.667969 12.535156 14.371094 12.5625 14.839844 12.605469 Z M 19.210938 12.808594 C 19.191406 12.933594 19.164062 12.972656 19.164062 12.871094 C 19.164062 12.777344 19.179688 12.710938 19.203125 12.710938 C 19.214844 12.710938 19.21875 12.75 19.210938 12.808594 Z M 19.3125 12.925781 C 19.3125 12.960938 19.304688 12.996094 19.292969 13.003906 C 19.28125 13.011719 19.273438 12.984375 19.273438 12.9375 C 19.273438 12.894531 19.285156 12.863281 19.292969 12.863281 C 19.304688 12.863281 19.3125 12.890625 19.3125 12.925781 Z M 17.15625 13.957031 C 17.203125 14.015625 17.109375 14.089844 17.054688 14.042969 C 17.019531 14.015625 17.015625 13.984375 17.046875 13.953125 C 17.078125 13.921875 17.128906 13.925781 17.15625 13.957031 Z M 15.269531 14.070312 C 15.371094 14.128906 15.46875 14.242188 15.527344 14.359375 C 15.5625 14.429688 15.570312 14.480469 15.570312 14.605469 C 15.570312 14.796875 15.527344 14.90625 15.394531 15.039062 C 15.289062 15.140625 15.171875 15.1875 15.007812 15.1875 C 14.824219 15.1875 14.707031 15.140625 14.605469 15.039062 C 14.363281 14.785156 14.34375 14.496094 14.542969 14.207031 C 14.640625 14.066406 14.8125 14.003906 15.042969 14.015625 C 15.15625 14.019531 15.207031 14.03125 15.269531 14.070312 Z M 18.523438 14.617188 C 18.722656 14.675781 18.878906 14.882812 18.980469 15.234375 C 19.019531 15.375 19.023438 15.417969 19.019531 15.804688 C 19.015625 16.4375 18.9375 16.902344 18.746094 17.492188 C 18.613281 17.90625 18.246094 18.476562 17.65625 19.191406 C 17.398438 19.5 16.785156 20.09375 16.574219 20.238281 C 16.527344 20.269531 16.433594 20.34375 16.359375 20.398438 C 16.289062 20.457031 16.203125 20.523438 16.171875 20.542969 C 16.042969 20.632812 15.484375 20.941406 15.375 20.988281 C 15.308594 21.011719 15.164062 21.074219 15.050781 21.121094 C 14.695312 21.269531 14.230469 21.410156 13.789062 21.5 C 13.394531 21.578125 13.101562 21.617188 13.125 21.59375 C 13.132812 21.585938 13.285156 21.535156 13.464844 21.484375 C 13.832031 21.378906 13.878906 21.359375 14.457031 21.078125 C 14.925781 20.851562 15.253906 20.644531 15.660156 20.335938 C 15.917969 20.136719 16.324219 19.765625 16.304688 19.746094 C 16.277344 19.722656 15.976562 19.902344 15.851562 20.015625 C 15.726562 20.132812 15.71875 20.136719 15.625 20.136719 C 15.515625 20.136719 15.503906 20.125 15.5625 20.070312 C 15.585938 20.050781 15.621094 20 15.644531 19.960938 C 15.664062 19.917969 15.734375 19.816406 15.796875 19.734375 C 15.859375 19.652344 16.109375 19.292969 16.351562 18.9375 C 16.664062 18.472656 16.839844 18.191406 16.972656 17.945312 C 17.074219 17.753906 17.164062 17.566406 17.175781 17.53125 C 17.203125 17.441406 17.261719 16.894531 17.289062 16.507812 C 17.316406 16.058594 17.355469 15.695312 17.390625 15.558594 C 17.4375 15.375 17.648438 14.953125 17.753906 14.847656 C 17.953125 14.628906 18.261719 14.539062 18.523438 14.617188 Z M 11.859375 15.207031 C 11.835938 15.242188 11.8125 15.222656 11.8125 15.164062 C 11.8125 15.105469 11.8125 15.105469 11.84375 15.144531 C 11.859375 15.167969 11.863281 15.195312 11.859375 15.207031 Z M 9.894531 15.242188 C 10.039062 15.332031 9.90625 15.496094 9.753906 15.414062 C 9.699219 15.382812 9.703125 15.324219 9.761719 15.257812 C 9.824219 15.195312 9.820312 15.195312 9.894531 15.242188 Z M 11.90625 15.261719 C 11.90625 15.273438 11.898438 15.28125 11.886719 15.28125 C 11.878906 15.28125 11.867188 15.273438 11.867188 15.261719 C 11.867188 15.25 11.878906 15.242188 11.886719 15.242188 C 11.898438 15.242188 11.90625 15.25 11.90625 15.261719 Z M 7.128906 15.375 C 7.285156 15.457031 7.296875 15.570312 7.164062 15.660156 C 7.039062 15.75 6.890625 15.628906 6.929688 15.46875 C 6.949219 15.363281 7.03125 15.328125 7.128906 15.375 Z M 16.621094 15.789062 C 16.644531 15.800781 16.675781 15.835938 16.6875 15.867188 C 16.75 16.011719 16.554688 16.109375 16.445312 15.988281 C 16.339844 15.878906 16.472656 15.722656 16.621094 15.789062 Z M 8.425781 16.078125 C 8.519531 16.113281 8.570312 16.1875 8.570312 16.289062 C 8.570312 16.382812 8.546875 16.429688 8.480469 16.503906 C 8.386719 16.601562 8.222656 16.554688 8.144531 16.402344 C 8.09375 16.300781 8.160156 16.125 8.273438 16.078125 C 8.347656 16.042969 8.351562 16.042969 8.425781 16.078125 Z M 10.746094 16.179688 C 10.882812 16.21875 11.007812 16.425781 11.007812 16.609375 C 11.003906 16.75 10.894531 16.902344 10.75 16.964844 C 10.523438 17.058594 10.203125 16.910156 10.140625 16.683594 C 10.0625 16.386719 10.234375 16.164062 10.546875 16.164062 C 10.617188 16.164062 10.707031 16.171875 10.746094 16.179688 Z M 15.421875 16.355469 C 15.640625 16.460938 15.695312 16.511719 15.828125 16.710938 C 15.960938 16.917969 15.984375 16.976562 15.972656 17.144531 C 15.945312 17.515625 15.6875 17.917969 15.378906 18.070312 L 15.234375 18.140625 L 14.746094 18.140625 L 14.589844 18.058594 C 14.339844 17.925781 14.136719 17.671875 14.054688 17.375 C 14.003906 17.203125 14.019531 16.953125 14.089844 16.820312 C 14.242188 16.523438 14.390625 16.390625 14.699219 16.289062 C 14.714844 16.28125 14.847656 16.277344 14.992188 16.277344 L 15.253906 16.273438 Z M 6.695312 16.59375 C 6.695312 16.621094 6.679688 16.632812 6.648438 16.632812 C 6.613281 16.632812 6.601562 16.621094 6.601562 16.59375 C 6.601562 16.566406 6.613281 16.554688 6.648438 16.554688 C 6.679688 16.554688 6.695312 16.566406 6.695312 16.59375 Z M 7.21875 17.371094 C 7.3125 17.433594 7.359375 17.535156 7.332031 17.625 C 7.308594 17.71875 7.1875 17.828125 7.101562 17.84375 C 7.011719 17.859375 6.914062 17.800781 6.851562 17.6875 C 6.792969 17.589844 6.800781 17.507812 6.875 17.417969 C 6.976562 17.296875 7.089844 17.285156 7.21875 17.371094 Z M 7.648438 18.5 C 7.691406 18.535156 7.707031 18.5625 7.707031 18.609375 C 7.707031 18.6875 7.652344 18.75 7.585938 18.75 C 7.464844 18.75 7.414062 18.566406 7.511719 18.488281 C 7.574219 18.4375 7.578125 18.441406 7.648438 18.5 Z M 11.109375 18.75 C 11.355469 18.816406 11.449219 18.871094 11.636719 19.058594 L 11.808594 19.230469 L 11.867188 19.421875 C 11.925781 19.617188 11.945312 19.804688 11.90625 19.898438 C 11.894531 19.933594 11.898438 19.964844 11.929688 20.023438 L 11.96875 20.105469 L 11.917969 20.152344 L 11.867188 20.203125 L 11.859375 20.160156 C 11.847656 20.132812 11.832031 20.117188 11.800781 20.117188 C 11.714844 20.117188 11.636719 20.171875 11.578125 20.269531 C 11.460938 20.472656 11.277344 20.585938 11.011719 20.625 C 10.789062 20.65625 10.628906 20.648438 10.464844 20.597656 C 10.304688 20.546875 10.085938 20.417969 10.085938 20.375 C 10.085938 20.355469 10.109375 20.332031 10.140625 20.316406 C 10.1875 20.289062 10.1875 20.289062 10.09375 20.296875 C 10.003906 20.308594 9.996094 20.308594 9.949219 20.25 C 9.925781 20.210938 9.882812 20.140625 9.859375 20.089844 C 9.820312 20.003906 9.816406 19.96875 9.816406 19.660156 C 9.816406 19.265625 9.8125 19.269531 10.003906 19.070312 C 10.1875 18.875 10.304688 18.808594 10.59375 18.742188 C 10.75 18.703125 10.941406 18.707031 11.109375 18.75 Z M 14.21875 19.21875 C 14.257812 19.25 14.269531 19.273438 14.269531 19.332031 C 14.269531 19.425781 14.222656 19.480469 14.125 19.496094 C 14.058594 19.503906 14.039062 19.5 14 19.457031 C 13.960938 19.417969 13.949219 19.390625 13.949219 19.316406 C 13.949219 19.265625 13.960938 19.21875 13.972656 19.203125 C 14.011719 19.167969 14.164062 19.175781 14.21875 19.21875 Z M 11.785156 20.210938 C 11.785156 20.246094 11.722656 20.261719 11.695312 20.234375 C 11.675781 20.214844 11.679688 20.207031 11.699219 20.195312 C 11.738281 20.167969 11.785156 20.179688 11.785156 20.210938 Z M 8.6875 20.429688 C 8.761719 20.503906 8.738281 20.585938 8.640625 20.585938 C 8.570312 20.585938 8.515625 20.511719 8.546875 20.445312 C 8.570312 20.390625 8.644531 20.382812 8.6875 20.429688 Z M 8.6875 20.429688 "/>
<path style=" stroke:none;fill-rule:nonzero;fill:rgb(0%,0%,0%);fill-opacity:1;" d="M 14.558594 16.527344 C 14.535156 16.613281 14.605469 16.683594 14.660156 16.628906 C 14.691406 16.59375 14.6875 16.546875 14.648438 16.511719 C 14.597656 16.46875 14.570312 16.472656 14.558594 16.527344 Z M 14.558594 16.527344 "/>
<path style=" stroke:none;fill-rule:nonzero;fill:rgb(0%,0%,0%);fill-opacity:1;" d="M 14.269531 17.453125 C 14.269531 17.484375 14.390625 17.648438 14.453125 17.699219 C 14.566406 17.792969 14.566406 17.765625 14.453125 17.65625 C 14.394531 17.605469 14.335938 17.53125 14.316406 17.496094 C 14.289062 17.4375 14.269531 17.421875 14.269531 17.453125 Z M 14.269531 17.453125 "/>
<path style=" stroke:none;fill-rule:nonzero;fill:rgb(0%,0%,0%);fill-opacity:1;" d="M 10.152344 19.894531 C 10.148438 19.902344 10.148438 19.914062 10.160156 19.914062 C 10.171875 19.914062 10.183594 19.902344 10.191406 19.894531 C 10.195312 19.882812 10.195312 19.875 10.183594 19.875 C 10.171875 19.875 10.160156 19.882812 10.152344 19.894531 Z M 10.152344 19.894531 "/>
<path style=" stroke:none;fill-rule:nonzero;fill:rgb(0%,0%,0%);fill-opacity:1;" d="M 9.9375 20.035156 C 9.925781 20.050781 9.921875 20.0625 9.933594 20.0625 C 9.941406 20.0625 9.957031 20.050781 9.964844 20.035156 C 9.96875 20.019531 9.972656 20.007812 9.96875 20.007812 C 9.964844 20.007812 9.949219 20.019531 9.9375 20.035156 Z M 9.9375 20.035156 "/>
<path style=" stroke:none;fill-rule:nonzero;fill:rgb(0%,0%,0%);fill-opacity:1;" d="M 10.46875 20.121094 C 10.453125 20.132812 10.398438 20.171875 10.335938 20.203125 C 10.277344 20.238281 10.238281 20.269531 10.253906 20.269531 C 10.285156 20.269531 10.519531 20.132812 10.519531 20.113281 C 10.519531 20.09375 10.492188 20.097656 10.46875 20.121094 Z M 10.46875 20.121094 "/>
<path style=" stroke:none;fill-rule:nonzero;fill:rgb(0%,0%,0%);fill-opacity:1;" d="M 10.023438 20.164062 C 10.03125 20.183594 10.042969 20.191406 10.054688 20.191406 C 10.082031 20.179688 10.074219 20.148438 10.042969 20.140625 C 10.023438 20.136719 10.015625 20.144531 10.023438 20.164062 Z M 10.023438 20.164062 "/>
<path style=" stroke:none;fill-rule:nonzero;fill:rgb(0%,0%,0%);fill-opacity:1;" d="M 8.601562 20.46875 C 8.59375 20.476562 8.585938 20.496094 8.585938 20.515625 C 8.585938 20.570312 8.652344 20.550781 8.660156 20.496094 C 8.664062 20.457031 8.628906 20.4375 8.601562 20.46875 Z M 8.601562 20.46875 "/>
<path style=" stroke:none;fill-rule:nonzero;fill:rgb(0%,0%,0%);fill-opacity:1;" d="M 9.355469 12 C 9.332031 12.046875 9.347656 12.113281 9.378906 12.113281 C 9.429688 12.113281 9.488281 12.050781 9.484375 12.011719 C 9.476562 11.953125 9.382812 11.945312 9.355469 12 Z M 9.355469 12 "/>
<path style=" stroke:none;fill-rule:nonzero;fill:rgb(0%,0%,0%);fill-opacity:1;" d="M 9.214844 12.191406 C 9.203125 12.207031 9.210938 12.207031 9.234375 12.199219 C 9.257812 12.1875 9.265625 12.195312 9.253906 12.21875 C 9.25 12.234375 9.242188 12.25 9.242188 12.253906 C 9.242188 12.257812 9.226562 12.261719 9.207031 12.261719 C 9.164062 12.261719 9.15625 12.28125 9.191406 12.316406 C 9.226562 12.351562 9.316406 12.34375 9.335938 12.300781 C 9.371094 12.234375 9.253906 12.128906 9.214844 12.191406 Z M 9.214844 12.191406 "/>
<path style=" stroke:none;fill-rule:nonzero;fill:rgb(0%,0%,0%);fill-opacity:1;" d="M 9.1875 12.980469 C 9.167969 12.992188 9.144531 13.019531 9.136719 13.042969 C 9.089844 13.132812 9.246094 13.292969 9.386719 13.292969 C 9.441406 13.292969 9.488281 13.265625 9.488281 13.230469 C 9.488281 13.21875 9.476562 13.21875 9.464844 13.234375 C 9.425781 13.273438 9.339844 13.261719 9.308594 13.210938 C 9.265625 13.144531 9.238281 13.046875 9.261719 13.023438 C 9.273438 13.011719 9.273438 12.996094 9.261719 12.980469 C 9.234375 12.949219 9.226562 12.949219 9.1875 12.980469 Z M 9.1875 12.980469 "/>
<path style=" stroke:none;fill-rule:nonzero;fill:rgb(0%,0%,0%);fill-opacity:1;" d="M 8.773438 13.136719 C 8.773438 13.152344 8.785156 13.160156 8.792969 13.152344 C 8.804688 13.148438 8.8125 13.132812 8.8125 13.125 C 8.8125 13.113281 8.804688 13.105469 8.792969 13.105469 C 8.785156 13.105469 8.773438 13.121094 8.773438 13.136719 Z M 8.773438 13.136719 "/>
<path style=" stroke:none;fill-rule:nonzero;fill:rgb(0%,0%,0%);fill-opacity:1;" d="M 8.8125 13.21875 C 8.851562 13.242188 8.894531 13.242188 8.878906 13.21875 C 8.871094 13.207031 8.847656 13.199219 8.824219 13.199219 C 8.792969 13.199219 8.789062 13.203125 8.8125 13.21875 Z M 8.8125 13.21875 "/>
<path style=" stroke:none;fill-rule:nonzero;fill:rgb(0%,0%,0%);fill-opacity:1;" d="M 8.777344 13.3125 C 8.785156 13.359375 8.878906 13.441406 8.898438 13.421875 C 8.90625 13.414062 8.886719 13.386719 8.859375 13.359375 C 8.832031 13.335938 8.816406 13.304688 8.820312 13.292969 C 8.828125 13.28125 8.820312 13.273438 8.804688 13.273438 C 8.78125 13.273438 8.773438 13.289062 8.777344 13.3125 Z M 8.777344 13.3125 "/>
</g>
</svg>
